<?xml version="1.0" encoding="UTF-8"?>
<!DOCTYPE svg PUBLIC "-//W3C//DTD SVG 1.1//EN" "http://www.w3.org/Graphics/SVG/1.1/DTD/svg11.dtd">
<!-- Creator: CorelDRAW -->
<svg xmlns="http://www.w3.org/2000/svg" xml:space="preserve" width="200mm" height="199.13mm" version="1.1" style="shape-rendering:geometricPrecision; text-rendering:geometricPrecision; image-rendering:optimizeQuality; fill-rule:evenodd; clip-rule:evenodd"
viewBox="0 0 19985.75 19898.8"
 xmlns:xlink="http://www.w3.org/1999/xlink"
 xmlns:xodm="http://www.corel.com/coreldraw/odm/2003">
 <defs>
  <style type="text/css">
   <![CDATA[
    .fil0 {fill:#164483}
   ]]>
  </style>
 </defs>
 <g id="Слой_x0020_1">
  <metadata id="CorelCorpID_0Corel-Layer"/>
  <g id="_2785463723520">
   <path class="fil0" d="M7207.39 15934.6l5424.42 -0.85c406.72,0.62 760.73,-23.57 1091.46,202.4 138.69,94.76 335.5,281.69 394.39,441.88l31.8 135.9 -8244.93 -0.05c1.33,-86.57 70.18,-247.26 168.43,-345.81 183.03,-183.61 368.49,-346.97 644.53,-395.42 54.73,-9.6 57,-19.75 107,-23.5l382.9 -14.55zm4185.32 -537.15l-2736.21 1.68c-2.86,-37.58 115.04,-376.47 145.98,-471.82 152.07,-468.76 293.93,-1164.29 709.8,-1392.38 276.59,-151.7 552.69,-200.85 859.97,-81.16 84.61,32.96 200.87,100.33 258.99,158.64 138.87,139.29 204.2,198.58 296.36,384.71l15.7 32.08c70.1,143.75 149.53,429.83 204.41,596.02l6.25 17.47c3.15,9.44 4.86,15.1 8.73,27.45l183.42 557.39c16.74,54.55 39.92,115.44 46.61,169.94zm-5631.09 -3080.2l1314.76 -0.82c82.04,-1.18 91.55,-13.42 172.02,90.34 127.62,164.58 245.18,240.52 400.85,400.1l441.64 347.26c161.85,115.74 402.2,254.76 579.32,340.71 44.98,21.81 59.16,31.39 93.3,52.68 -18.23,36.94 -20.31,25.33 -42.77,67.75 -143.25,270.59 -138.98,289.13 -235.36,541.34 -58.8,1.16 -393.4,-96.78 -446.05,-114.58 -145.7,-49.26 -273.69,-95.83 -412.96,-160.63 -68.56,-31.91 -124.6,-52.77 -197.72,-89.29 -272.53,-136.09 -373.01,-222.02 -616.4,-375.65 -39.59,-25 -46.3,-40.33 -81.68,-61.83l-162.8 -123.4c-29.84,-25.62 -45.06,-45.73 -73.13,-70.34 -27.05,-23.72 -58.37,-41.66 -82.34,-61.22 -114.18,-93.19 -316.84,-328.55 -416.81,-443.34 -69.04,-79.3 -190.71,-236.63 -233.86,-339.1zm381.21 -2700.63c11.96,-31.12 122.38,-178.92 149.42,-210.11l150.47 -196.82c47.18,7.65 525.7,351.81 585.6,418.88 -71.22,75.57 -158.57,215.27 -233.68,304.06 -21.7,25.64 -45.04,74.28 -77.12,93.56 -50.41,-12.6 -233.47,-160.01 -293.11,-200.75 -51.66,-35.28 -97.44,-69.75 -143.42,-106.83 -40.1,-32.34 -109.43,-69.05 -138.17,-102zm5519.92 -2184.78c121.27,60.26 488.96,291.47 575.62,379.72 39.34,40.07 45.67,46 90.3,77.45 62.05,43.74 263.85,259.83 350.93,341.68 82.84,77.85 309.06,381.03 379.79,491.77l292.96 544.05c4.09,9.3 5.7,13.35 10.53,25.3 15.68,38.74 35,82.45 51.62,127.48 17.77,48.12 26.98,77.97 42.84,124.47 31.75,93.11 51.54,170.96 78.26,268.43 18.35,66.93 56.56,213.97 63.53,282.74 9.72,96.07 27.32,203.23 44.07,301.89l4.44 701.83c-7.44,190.54 -120.23,714.59 -171.33,868.07 -167.83,504.09 -171.15,454.14 -374.83,844.06 -74.18,141.99 -324.39,489.58 -439.53,599.67 -93.51,89.43 -282.68,321.33 -435.9,423.85 -89.9,60.14 -296.16,226.73 -409.64,283.3 -57.17,28.5 -161.35,108.25 -236.04,113.02l-322.37 -706.99c95.43,-61.12 140.44,-73.69 257.52,-160.19 133.77,-98.83 256.42,-186.4 375.84,-305.44 49.46,-49.29 87.92,-87.79 137.54,-137.28 56.16,-56 73.29,-89.83 125.6,-149.39 460.75,-524.55 730.56,-1324.56 727.36,-2019.71l-96.41 -727.25c-65.58,-311.18 -264.62,-698.06 -431.69,-942.13 -39.06,-57.06 -85.6,-105.13 -118.78,-155.19 -44.67,-67.42 -74.79,-85.99 -124.76,-151 -145.99,-189.93 -387.99,-367.6 -590.51,-508.78 -77.83,-54.25 -304.05,-177.21 -332.03,-215.85 139.11,-175.67 255.29,-446.71 283.54,-705.73 62.92,9.22 130.35,55.73 191.52,86.14zm-1671.47 679.42c-165.21,0.21 -415.71,-101.02 -502.31,-178.68 -113.3,-101.62 -52.24,3.26 -175.9,-170.62 -51.18,-71.97 -87.15,-117.99 -125.85,-208.58 -162.48,-380.32 -36.19,-783.49 183.01,-1006.94 145.95,-148.76 363.51,-275.4 585.01,-275.87 175.67,-0.38 264.53,-5.56 435.03,67.7 170.76,73.36 266.92,164.59 373.93,306.87 27.83,37.01 40.75,56.32 64.67,102.78l35.64 71.87c1.19,2.54 2.63,5.64 3.8,8.2 160.24,350.19 61.65,761.7 -189.71,1014.77 -187.81,189.09 -417.59,268.12 -687.32,268.51zm-2841.94 -822.88c27.26,-35.78 62.32,-81.78 91.66,-123.69l224.12 -313.71c121.43,-171.14 610.02,-820.55 683.69,-941.6l1077.99 -1478.62c22.77,-30.21 -15.34,1.96 23.7,-28.11 44.21,10.31 156.9,99.48 198.52,129.05 55.4,39.35 118.64,87.23 180.06,130.35 124.44,87.34 1033.49,730.13 1079.19,784.71l-274.91 346.39c-46.93,19.71 -497.47,-172.15 -1031.19,91.92 -350.91,173.63 -664.81,514.49 -767.88,904.76l-52.78 281.86c-0.02,282.92 5.66,471.51 135.77,736.31 41.63,84.72 53.24,111.06 125.83,195.64 -164.55,212.85 -379.85,531.38 -543.53,733.4l-273.78 371.19c-50.21,68.6 -85.07,120.63 -135.89,187.4l-132.9 176.96 -358.66 -261.84c-19.73,-14.24 -33.1,-18.89 -52.14,-32.12l-310.45 -226.92c-26.5,-18.59 -21.14,-11.57 -48.78,-34.71l-312.84 -225.2c-121.37,-83.91 -230.36,-172.52 -349.92,-258.04l825.12 -1145.39zm2818.45 -3060.32c68.22,-75.03 303.97,-434.36 369.99,-489.88 21.97,9.05 701.38,478.76 728.98,525.73 -15.23,33.9 -27.23,39.46 -52.57,67.04l-317.96 432.37c-37.07,-35.21 -45.85,-37.92 -92.48,-72.41 -94.54,-69.91 -578.44,-391.73 -635.95,-462.85zm1646.29 -248.96c-31.8,-20.69 -42.23,-30.4 -78,-53.61l-1112.48 -794.62c17.05,-76.67 114.43,22.36 160.61,50.74l1030.28 737.72c107.33,75.58 95.7,52.67 97.69,106.13 -47.79,-1.84 -62.75,-23.4 -98.09,-46.37zm3011.6 13210.82c220.97,-200.13 -54.83,-967.01 -326.86,-1247.28 -81.38,-83.85 -132.36,-150.32 -223.45,-206.8 -37.61,-23.32 -42.83,-34.68 -83.4,-60.28 -126.48,-79.83 -246.48,-142.24 -394.87,-190.06 -547.42,-176.44 -1230.63,-30.55 -1630.38,-90.53 -16.78,-28.36 -204.71,-594.74 -207.33,-628.73l39.55 -20.67c11.23,-5.71 20.17,-10 31.72,-15.99 25.11,-12.99 45.13,-24.23 69.97,-37.1 47.78,-24.74 79.07,-44.72 130.28,-73.11 48.99,-27.15 78.08,-47.62 133.21,-81.6l365.36 -256.29c102.59,-78.76 366.39,-309.81 429.91,-393.99 66.38,-87.98 127.95,-126.16 195.96,-223.02 32.71,-46.57 58.96,-69.97 95.07,-120.1 26.88,-37.31 58.11,-75.04 88.18,-114.51 53.62,-70.39 115.17,-162.56 164.28,-242.35 292.28,-474.82 414.31,-797.66 563.1,-1312.34 31.86,-110.2 56.25,-298.66 67.2,-339.67 72.84,-272.91 92.94,-1076.59 26.6,-1343.89 -11.4,-45.97 -23.14,-138.81 -31.14,-183.58 -121.14,-678.09 -417.86,-1323.51 -822.96,-1853.28 -119.98,-156.89 -193.18,-215.23 -295.31,-338.38 -63.72,-76.84 -148.73,-145.05 -214.42,-204.35 -37.34,-33.73 -62.05,-69.48 -99.29,-103.35 -122.76,-111.62 -280.32,-216.58 -414.26,-314.79l-251.56 -154.56c-146.53,-96.72 -315.13,-172.8 -477.9,-238.57 -28.19,-11.39 -49.87,-17.88 -78.15,-29.69 -29.01,-12.13 -30.06,-19.32 -69.67,-25.82 -12.33,-93.8 -80.98,-222.41 -138.94,-303.03l-125.4 -173.01c-42.4,-55.47 -210.64,-195.41 -220.31,-213.09 81.32,-151.34 381.12,-469.19 424.21,-593.69 46.56,-134.49 -19.59,-209.43 -102,-287.7l-106.18 -86.4c9.59,-50.29 341.61,-499.53 384.16,-520.51 90.49,31.93 173.77,144.47 326.43,93.9 119.23,-39.5 229.84,-252.53 306.59,-350.43 34.4,-43.87 65.31,-79.73 94.48,-120.1l90.36 -125.13c155.95,-272.24 -143.27,-379.79 -287.21,-500.15 -31.56,-26.39 -93.02,-69.49 -126.11,-89.44 -41.7,-25.15 -82.85,-65.36 -129.77,-96.59l-634.9 -452.75c-47.01,-34.42 -78.85,-53.75 -124.31,-90.52l-445.87 -318.87c-207.95,-148 -317.18,-192.93 -496.75,32.32l-272.77 372.77c-154.71,233.04 84.83,330.51 123.73,433.02l-162.14 221.19c-89.06,103.84 -156.17,211.6 -240.63,321.33 -28.88,37.52 16.31,5.97 -28.42,31.4l-170.52 -128.91c-66.32,-43.67 -150.1,-61.02 -233.61,-37.19 -103.62,29.56 -164.28,136.53 -220.42,222.62l-251.35 346.18c-137.42,193.23 -309.86,398.6 -432.49,594.93l-465.76 645.31c-8.56,11.64 -22.93,24.47 -33.59,38.07 -45.5,58.04 -81.48,111.8 -126.24,172.4l-152.77 217.67c-10.16,14.75 -21.54,25.03 -32.76,38.7 -149.55,182.33 -396.72,566.57 -557.71,768.47l-498.31 684.65c-80.48,123.98 -169.13,219.15 -252.97,344.34 -56.52,84.41 -134.24,169.35 -187.4,255.37 -11.36,18.4 -12.88,25.66 -27.43,43.59l-127.71 171.15c-63.15,84.61 -83.26,197.79 -32.39,297.9 38.12,75.04 151.14,155.81 220.05,198.5 28.5,17.65 57.38,32.81 70.96,72.33 -1.5,24.8 -238.8,309.23 -276.95,368.91 -39.77,62.22 -95.78,123.89 -137.46,185.31l-64.5 90.65c-72.31,111.09 -55.65,276.57 31.73,351.81l188.02 134.77c31.35,20.14 25.22,11.39 50.95,32.25 26.06,21.13 14.95,15.86 46.24,37.57l645.24 465.75c119.52,92.26 290.05,224.64 448.2,113.02 80.43,-56.77 142.7,-202.89 207.7,-282.22l205.2 -272.08c26.09,-32.73 37.17,-58.14 65.69,-90.27 28.45,-32.05 40.79,-70.68 71.2,-84.39 50.97,22.89 95.25,71.97 137.7,101.35 179.54,124.23 327.18,137.39 445.45,-55.42l382.72 -525.48c72.07,-90.24 117.89,-171.56 191.4,-262.76l480.71 -654.87c32.29,-50.36 59.01,-81.5 94.48,-131.67 53.91,1.27 192.03,92.77 260.84,121.69 88.41,37.14 185.87,66.76 281.61,88.07 215.32,47.93 457.55,29.75 657.4,-25.93 359.68,-100.21 223.32,-211.74 533.3,-53.11 206.78,105.8 389.01,228.19 562,370.26 128.93,105.86 224.45,248.78 268.51,292.72 109.95,109.67 220.45,310.07 291.57,448.69 282.6,550.78 353.02,1287.88 161.99,1870.51 -55.58,169.53 -128.43,358.77 -221.27,519.63 -91.32,158.2 -198.1,294.66 -303.34,437.39 -46.08,62.5 -118.51,129.35 -179.66,190.48 -127.97,127.92 -270.21,241.88 -417.66,334.81 -302.85,190.88 -171.47,152.45 -473.97,5.25 -78.44,-38.18 -189.66,-73.53 -273.02,-97.33 -312.44,-89.25 -663.91,-26.78 -948.88,92.62l-235.26 135.42c-76.53,14.76 -439.2,-191.12 -541.64,-246.7 -173.22,-93.99 -269.62,-185.17 -394.52,-263.4 -46.89,-29.36 -322.02,-254.42 -346.59,-301.25 192.6,-4.3 958.32,25.81 1059.01,-21.22 208.23,-97.25 201.94,-400.61 8.72,-505.57 -66.98,-36.38 -152.02,-23.9 -239.01,-23.9 -442.95,0.01 -4478.13,-14.09 -4549.09,3.73 -169.89,42.67 -287.51,347.85 -66.39,501.87 76.02,52.94 126.16,44.25 230.55,44.12 261.14,-0.31 528.31,-9.97 788.57,1.32 13.75,22.12 2.99,6.74 15.32,31.04 98.06,193.22 227.74,379.34 356.64,551.32l203.36 226.84c34.94,35.6 42.41,52.01 85.17,94.21l447.06 413.31c68.85,52.38 128.05,100.87 195.45,150.58 342.32,252.52 709.62,453.13 1104.72,628.26 86.17,38.2 162.9,65.24 248.38,98.31 147.94,57.23 300.69,95.77 457.36,139.6 34.31,9.59 40.48,7.05 76.96,6.95 -1.46,59.31 -94.74,305.58 -118.11,372.23 -27.6,78.76 -119.69,291.3 -121.22,368.58l-645.11 -0.17c-306.26,0.03 -535.7,-19.44 -826.32,45.32 -151.5,33.76 -292.2,83.02 -422.24,151.8 -71.34,37.72 -112.77,68.64 -175.84,110.63l-165.67 133.27c-58.59,54.14 -78.69,94.14 -136.07,150.75 -170.74,168.45 -320.15,557.66 -350.48,807.45 -21.55,177.56 -38.83,346.09 109.13,437.41 90.3,55.74 429.77,27.47 557.62,27.47l8100.77 0c185.8,-0.04 380.88,34.74 500.37,-73.49z"/>
   <path class="fil0" d="M9779.77 568.79c192.29,-30.31 367.75,14.04 558,15.01l554.63 31.92c135.56,30.52 325.21,29.99 398.15,43.74 54.12,10.2 49.36,16.12 122.64,20.12 97.38,5.32 497.82,94.21 622.82,117.29 33.21,6.13 29.61,2.48 60.72,11.53 32.38,9.43 11.42,7.29 57.67,14.1 183,26.96 515.03,131.32 696.53,187.88 938.26,292.38 2121,866.76 2906.42,1502.16 27.3,22.08 50.81,31.47 83.04,60.2l553.75 474.34c130.12,116.48 259.13,232.98 376.94,363.55 110.69,122.68 246.59,260.91 343.31,385.15 29.64,38.08 43.5,44.05 76.84,78.33 23.29,23.95 34.61,51.52 60.02,83.62 24.35,30.77 45.25,44.9 69.16,73.75 94.09,113.47 379.39,482.08 439.49,588.17 38.72,68.35 75.74,117.7 118.27,180.73l541.04 928.56c8.01,15.88 16.84,33.41 23.97,47.71l279.99 616.57c5.94,15.2 12.4,33.25 19.64,51.22 4.53,11.23 6.99,16.61 10.56,25.23l109.8 284.92c101.16,278.3 193.17,601.86 272.5,898.32 38.78,144.94 139.46,597.46 150.77,733.38l72.02 513.19c2.84,46.77 -3.45,92.96 4.11,140.02 9.01,56.19 19.35,56.55 20.44,122.57 6.34,382.92 47.2,775.57 21.73,1159.47 -6.31,94.92 -22.21,173.06 -22.17,274.83 0.05,107.13 -22.41,170.43 -23.83,262.31 -3.31,216.85 -92.61,786.64 -150.9,1021.06 -100.36,403.57 -186.65,765.01 -322.05,1159.24l-159.56 425.72c-31.23,73.48 -57.7,135.58 -85.3,201.74 -291.22,697.96 -689.34,1355.54 -1130.3,1964.47 -21.86,30.2 -42.27,43.43 -65.44,77.53l-672.61 785.08c-120.27,122.34 -695.8,665.69 -852.83,771.89l-168.96 130.11c-130.26,114.17 -282.87,200.23 -422.92,305.78 -226.67,170.85 -484.59,308.45 -729.98,452.78 -439.94,258.75 -923.32,474.18 -1407.7,647.34l-331.24 111.05c-227.44,65.9 -458.1,135.21 -695.86,187.74l-356.27 73.33c-86.58,11.11 -174.43,34.04 -252.29,46.27 -86.1,13.53 -173.53,16.77 -258.52,30.14l-259.3 37.72c-76.26,16.72 -173.1,4.36 -265.48,21.88 -91.16,17.31 -194.62,6.75 -290.46,9.89 -90.82,2.98 -170.45,20.99 -261.95,22.34 -197.38,2.91 -385.9,3.19 -578.17,-16.93 -101.14,-10.58 -195.77,-1.32 -294.68,-7.18 -47.17,-2.8 -76.41,-14.95 -122.29,-20.21 -46.98,-5.4 -93.02,-0.24 -139.67,-4.95 -48.26,-4.88 -78.69,-18.74 -131.88,-21.21 -210.91,-9.84 -428.52,-49.56 -637.11,-91.26l-731.88 -153.71c-300.79,-78.38 -610.41,-167.86 -894.61,-276.54 -76.95,-29.42 -138.89,-50.28 -218.38,-80.29 -428.5,-161.69 -888.61,-387.73 -1283.84,-627.93 -33.62,-20.44 -57.99,-32.51 -90.64,-52.43l-451.93 -289.44 -900.92 -699.23c-200.76,-190.79 -410.14,-378.28 -600.83,-582.76 -28.39,-30.45 -47.01,-44.8 -76.05,-78.56l-403.86 -468.57c-25.66,-28.84 -40.36,-54.35 -61.91,-81.65l-252.33 -332.86c-150.35,-202.53 -283.12,-410.28 -415.71,-623.62 -17.95,-28.87 -30.4,-54.82 -52.01,-91.17 -37.38,-62.88 -69.76,-124.98 -109.4,-189.6 -115.85,-188.85 -257.55,-473.68 -346.51,-680.94 -103.12,-240.21 -208.73,-487.05 -295.3,-732.38 -53.58,-151.84 -102.47,-284.55 -146.25,-439.11l-282.88 -1185.88c-24.48,-138.33 -42.45,-379.62 -69.58,-515.91l-54.01 -819.25c0.18,-182.12 -13.47,-421.42 2.52,-596.55l45.01 -538.02c8.03,-302.9 79.73,-611.3 121.67,-907.34 6.6,-46.51 6.64,-19.11 15.61,-54.79 7.53,-29.98 3.87,-35.87 8.07,-64.77l66.09 -279.5c3.23,-12.78 3.26,-18.1 6.07,-30.25 8.05,-34.79 8.65,-25.96 15.96,-55.05 175.57,-699.22 428.88,-1393.93 762.34,-2034.25 32.83,-63.04 72.43,-124.92 103.57,-183.04 20.53,-38.29 28.96,-59.06 54.16,-101.09l158.86 -271.74c41.49,-62.27 77.87,-122.08 116.53,-182.01l295.67 -433.47c71.06,-109.13 254.19,-318.14 318.95,-409.96 46.06,-65.29 85.75,-97.84 135.13,-162.92 204.08,-268.91 473.64,-515.86 717.75,-751.83 215.99,-208.8 270.44,-239.36 468.87,-415.54 28.03,-24.88 55.16,-40.04 81.44,-61.81l413.45 -315.18c97.4,-72.27 239.15,-155.35 355.32,-242.19 110.91,-82.91 428.25,-263.47 555.48,-328.76l581.2 -291.04c610.11,-294.59 1417.79,-568.48 2102.01,-694.09l119.53 -24.16c103.4,-14.75 272.25,-59.67 372.29,-68.62l931.68 -96.46c103.12,0.12 179.35,0.67 278.39,-14.95zm-59.48 -561.89c-102.77,9.25 -211.39,-0.81 -314.62,4.36 -50.14,2.5 -86.23,15.84 -132.58,20.66 -51.25,5.33 -103.08,0.01 -154.47,3.05 -57.29,3.38 -77.5,19.15 -130.79,22.62l-286.86 25.38c-56.29,5.05 -61.38,19.53 -131.52,22.75 -174.77,8.03 -938.66,175.11 -1038.6,204.18 -27.11,7.88 -30.48,6.82 -59.1,12.62 -47.6,9.63 -24.94,8.49 -64.67,18.66l-716.41 215.83c-487.95,170.57 -973.27,362.25 -1417.96,612.84l-591.8 340.21c-228.04,139.52 -482.52,305.62 -687.03,472.26 -97.17,79.18 -217.94,149.17 -310.17,239.71 -37.23,36.56 -50.24,37.26 -87.97,66.85 -28.66,22.46 -45.37,46.14 -79.84,75.7 -29.39,25.19 -62.31,43.45 -89.49,66.12l-322.44 298.68c-107.06,107.23 -212.48,211.88 -316.59,316.64 -50.33,50.64 -112.11,108.38 -155.91,154.44 -50.48,53.09 -77.16,107.98 -143.23,167.82l-557.84 685.06c-115.8,156.19 -280.96,385.66 -378.12,553.79 -13.83,23.94 -12.46,17.63 -28.99,42.62 -15.32,23.15 -15.67,29.1 -30.67,53.01l-120.09 190.37c-450.35,794.99 -829.89,1642.26 -1053.78,2530.06l-117.39 515.07c-38.66,159.93 -60.72,426.74 -88.03,534.82 -28.49,112.75 -86.61,685.56 -86.45,844.93 0.09,101.63 -18.77,186.76 -22.63,286.19 -8,205.47 -2.56,426.99 -1.18,633.75 0.72,107.32 23.09,190.59 23.94,286.24 1.07,121.8 5.76,176.44 20.44,289.32 6.69,51.42 -0.56,101.57 5.5,152.28 6.39,53.4 20.07,68.47 21.57,132 1.44,60.17 17.72,224.97 30.34,281.19 17.24,76.79 33.99,189.07 42.31,268.3 12.66,120.63 46.43,262.97 76.07,389.72 6.24,26.64 9.84,23.86 15.71,54.94 51.09,271.04 125.51,543.64 209.95,806.24l133.05 404.52c5.19,13.47 6.63,15.66 10.26,25.83l140.78 372.26c14.92,38.15 25.9,69.75 43.78,111.65l196.48 437.21c37.3,75.58 68.37,143.35 102.37,207.86 35.64,67.64 72.2,129.16 110.26,200.31 8.58,16.02 16.85,35.09 23.37,48.4l437.9 733.21c100.87,155.32 200.21,315.49 322.06,454.69 27.21,31.1 32.05,53.06 65.51,89.92 59.43,65.44 185.69,260.44 273.03,348.39 106.56,107.32 176.33,227.77 288.48,332.6 179.43,167.73 282.43,325.8 470.36,474.06 45.8,36.12 105.39,100.71 156.13,154.12l417.83 359.48c53.64,35.25 41.62,31.92 84.27,70.17 30.48,27.33 59.67,41.7 88.74,66.9 222.7,193.01 722.87,534.23 1008.14,700.31l398.38 223.2c411.52,219.2 848.9,428.47 1295.56,580 81.49,27.65 153.54,55.52 229.13,81.84 292.99,102.02 1140.02,339.56 1501.8,374.6l398.54 65.67c84.36,15.27 299.07,15.98 422.51,44.66l589.12 31.9c207.6,-0.2 404.55,11.88 615.15,4.44 102.24,-3.61 202.54,-4.48 304.85,-4.41 110.98,0.09 189.52,-21.53 286.21,-23.91 48.8,-1.2 104.94,4.05 152.31,-4.21 62.04,-10.81 60.69,-19.34 134.73,-19.75l284.27 -27.46c382.59,-64.23 743.94,-131.24 1098.21,-215.48 536.82,-127.64 1074.47,-337.08 1577.29,-561.15l197.71 -89.17c219.22,-110.19 405.11,-200.54 610.05,-321.19l483.29 -293.86c147.31,-102.11 316.67,-201.98 462.6,-314.04l178.94 -131.85c22.71,-17.71 15.51,-16.32 37.33,-34.12 141.56,-115.36 344.67,-256.28 477.21,-383.36 108.35,-103.9 233.01,-189.86 321.48,-299.96 53.15,-66.12 102.89,-95.2 159.74,-150.64 54.48,-53.12 110.01,-106.79 159.62,-163.12l652.52 -745.68c62.31,-89.61 141.44,-168.95 203.9,-261.5 85.51,-126.68 169.91,-238.35 254.82,-366.7 162.51,-245.64 330.42,-513.02 463.91,-778.77l212.47 -408.8c72.86,-147.03 127.22,-284.72 197.5,-435.69 36.01,-77.34 59.52,-140.05 90.28,-220.08 118.77,-308.94 220.95,-611.52 316.57,-925.79l240.14 -1014.47c19.85,-78.12 19.55,-189 40.67,-270.87 20.25,-78.46 35.15,-300.86 56.17,-408.57 9.91,-50.77 2.27,-98.96 6.76,-150.28 4.17,-47.67 18.46,-79.99 21.6,-131.43 3.13,-51.14 -0.64,-104.73 0.94,-156.2 2.99,-96.83 23.62,-173.39 23.75,-286.24 0.3,-255.74 21.8,-682.63 -18.31,-926.24 -15.54,-94.4 4.88,-199.17 -14.38,-294.15l-63.23 -560.08c-2.84,-70.59 -36.31,-195.57 -45.58,-263.72 -7.42,-54.6 -16.03,-90.18 -22.6,-132.44l-91.22 -446.97c-7.13,-27.45 -6.52,-43.91 -13.28,-71.06 -89.3,-358.64 -201.07,-725.14 -323.99,-1073.59l-318.55 -768.62 -316.13 -627.73c-130.85,-245.82 -368.95,-645.45 -541.6,-856.5 -26.46,-32.33 -36.47,-57.38 -63.02,-92.29l-474.74 -612.74c-142.8,-166.66 -279.27,-341.53 -441.08,-490.84l-1063.6 -967.99c-116.1,-86.22 -230.71,-189.11 -355.98,-265.28l-275.12 -190.51c-517.35,-316.88 -1059.51,-642.27 -1633.74,-863.32 -70.18,-27.03 -147.12,-64.47 -220.23,-90.41 -224.47,-79.62 -457.83,-171.25 -688.45,-243.42 -279.27,-87.4 -574.98,-150.67 -860.76,-226.2 -210.02,-55.51 -445.31,-83.86 -664.85,-123.43 -178.05,-32.09 -370.54,-38.9 -550.17,-70.09 -208.57,-36.2 -1017.6,-49.41 -1198.83,-33.12z"/>
  </g>
 </g>
</svg>
