<?xml version="1.0" encoding="UTF-8"?>
<!DOCTYPE svg PUBLIC "-//W3C//DTD SVG 1.1//EN" "http://www.w3.org/Graphics/SVG/1.1/DTD/svg11.dtd">
<!-- Creator: CorelDRAW -->
<svg xmlns="http://www.w3.org/2000/svg" xml:space="preserve" width="200mm" height="230.121mm" version="1.1" style="shape-rendering:geometricPrecision; text-rendering:geometricPrecision; image-rendering:optimizeQuality; fill-rule:evenodd; clip-rule:evenodd"
viewBox="0 0 19985.75 22995.7"
 xmlns:xlink="http://www.w3.org/1999/xlink"
 xmlns:xodm="http://www.corel.com/coreldraw/odm/2003">
 <defs>
  <style type="text/css">
   <![CDATA[
    .fil0 {fill:#164483}
   ]]>
  </style>
 </defs>
 <g id="Слой_x0020_1">
  <metadata id="CorelCorpID_0Corel-Layer"/>
  <g id="_2785387036016">
   <path class="fil0" d="M10486.37 18952.54l-47.3 44.18c-36.21,-70.95 2.76,-69.97 47.7,-202.14l1389.97 -4101.26c40.83,-139.41 99.3,-293.53 148.54,-435.72 46.26,-133.59 104.44,-290.84 152.08,-432.69l437.72 -1297.55c26.16,-73.76 43.94,-128.61 72.61,-210.68l57.57 -155.06c22.47,-41.1 0.88,-27.66 39.3,-41.66 14.57,-24.42 1.55,-53.07 157.03,38.08 186.39,109.28 428.69,190.85 506.33,238.32 44.58,27.26 47.66,37.97 80.11,95.95 1.96,3.5 4.38,8.07 6.34,11.63 1.99,3.61 4.42,8.13 6.41,11.77l25.89 47.09c1.98,3.56 4.42,8.03 6.4,11.56l204.38 466.35c21.28,54.37 46.97,109.35 67.12,166.5 3.63,10.29 10.45,30.18 14.11,39.39l10.71 24.84c1.63,3.83 3.83,8.33 5.46,12.15l183.44 451.78c45.05,119.95 82.03,247.02 136.19,360.92 59.16,124.39 127.06,226.21 160.09,332.77 -66.47,24.3 34.34,35.71 -425.38,159.22 -162.42,43.63 -877.17,208.62 -963.89,273.01 -146.82,109.01 -124.55,291.45 -15.86,425.77 28.17,34.82 47.72,55 64.82,77.17l247.04 355.76c28.96,38.88 42.14,51.97 71.4,87.85 4.9,5.99 21.85,27.68 30.57,39.82l21.49 31.61c178.27,248.96 178.97,171.92 30.99,388.45 -39.49,57.78 -20.18,34.83 -73.86,85.61 -100,94.61 -137.08,166.71 -306.11,313.82 -92.49,80.5 -64.76,39.17 -155.33,146.25l-1437.01 1344.4c-60.18,48.7 -101.42,81.51 -158.82,142.26 -58.78,62.23 -110.51,89.79 -173.06,145.93l-202.13 169.43c-27.23,27.88 -12.86,19.87 -41.91,47.2l-244.62 214.79c-62.89,45.93 -99.31,99.98 -178.91,138.02 2.67,-2.87 6.62,-11.08 7.73,-8.82l34.63 -54.05zm3330.25 -5701.93c10.23,63.8 -2.49,40.17 29.62,73.45 3.59,-94.53 -9.33,-48.93 -29.62,-73.45zm-283.41 -666.12c20.73,49.24 -3.19,27.41 43.5,56.55 -26.51,-69.67 12.64,-13.54 -43.5,-56.55zm-674.23 -432.89c-35.38,-34.67 52.8,-37.97 -59.66,-25.26l59.66 25.26zm638.04 3064.83c-3.17,-85.35 -4.33,-40.88 85.65,-58.23 40.24,-7.75 -1.31,8.19 45.94,-7.16 49.95,-16.25 27.4,-10.21 48.59,-28.57l-115.72 14.41c44.39,-59.13 116.95,-49.76 216.66,-68.93 197.65,-37.94 525.77,-73.79 672.24,-122.06 466.05,-153.6 465.9,-257.97 356.3,-581.64l-366.8 -976.9c-25.7,-64.73 -62.74,-114.12 -87.29,-181.6 -22.15,-60.88 -49.36,-134.73 -72.4,-190.78l-60.67 -153.86c3.22,-52.98 -25.3,-19.23 21.94,-42.84 -6.27,-64.54 -11.53,-36.23 10.97,-62.62 17.87,-66.71 328.37,38.05 432.94,64.55 456.69,115.7 916.66,228.02 1363.85,373.12 266.09,86.34 685.23,234.61 930.92,362.29 225.71,117.31 414.9,257.52 615.17,413.94 69.52,54.31 321.42,323.75 373.18,408.76l148.08 223.77c14.72,25.84 -2.57,2.53 28.49,42.69 15.16,19.61 18.79,19.53 32.31,39.87l223.68 483.23c85.99,155.21 225.93,182.63 362.96,89.04 213.91,-146.12 45.44,-420.37 -61.24,-606.3l-483.75 -685.3c-86.67,-117.48 -180.03,-181.74 -299.88,-265.72 -115.04,-80.62 -167.13,-184.34 -319.08,-265.1 -56.5,-30.03 -117.06,-74.19 -172.07,-110.55 -225.36,-148.95 -271.25,-192.5 -548.51,-320.75 -777.71,-359.78 -1811.12,-568.28 -2664.74,-804.53 -332.1,-91.91 -1229.99,-522.24 -1615.54,-704.69 -160.57,-76 -148.58,-137.5 -161.07,-421.43 -5.43,-123.61 -50.28,-499.09 32.8,-552.68l463.27 -578.2c47.46,-67.03 96,-146.56 139.49,-214.8 93.3,-146.38 419.12,-782 424.93,-974.67l71.08 0.03c8.25,-40.37 -34.52,-33.66 120.2,-44.47 235.37,-16.47 543.77,-216.12 680.99,-375.5l110.24 -119.04c53.41,-50.9 53.18,-84.88 90.35,-138.28 355.11,-510.13 526.73,-1518.77 110.47,-1961.93 -161.01,-171.43 -125.15,-174.64 -92.03,-305.43 19.81,-78.18 8,-75.21 49.74,-100.43l-14.77 88.9c18.5,-18.21 10.04,8.62 32.11,-45.13 10.23,-24.95 9.82,-44.89 13.29,-71.82l-38.18 26.9c-10.39,-103.51 487.26,-1852.06 -238.24,-3200.25 -133.83,-248.71 -151.93,-275.97 -303.08,-477.34 -30.64,-40.83 -28.48,-51.17 -56.08,-85.42l-280 -339.55c-67.9,-54.37 -87.92,-99.57 -144.57,-155.41 -151.49,-149.32 -333.56,-313.81 -508.56,-429.69 -62.25,-41.21 -125.83,-142.4 -256.79,-203.31 -56.44,-26.24 -38.63,-18.05 -88.08,-52.21 -519.11,-358.67 -1313.19,-590.53 -1966.55,-654.82 -138.42,-13.63 -102.19,-26.28 -124.51,-46.52l151.95 18.28c-76.66,-63.71 -666.88,-76.73 -809.38,-77.65 -147.5,-0.97 -295.29,-1.31 -442.79,-0.18 -124.68,0.97 -333.91,-17.08 -425.54,40.63l340.78 -0.13c-25.13,11.87 -736.53,84.83 -858.54,101.13 -764.33,102.13 -1450.42,448.81 -2036,812.43l-397.45 328.49c-43.04,35.87 -19.92,19.29 -59.19,63.36 -21.96,24.64 -32.29,31.68 -53.73,52.88 -23.61,23.35 -36.59,40.99 -60.37,64.08 -232.95,226.4 -296.86,338.7 -472.82,588.81 -99.8,141.82 -76.67,128.75 -133.94,220.89l-87.4 159.9c-11.5,25.65 -24.11,50.24 -34.45,70.8 -768.15,1527.57 -109.71,3320.65 -122.12,3425.84 -9.18,77.93 -164.51,188.75 -232.03,456.13 -78.59,311.29 -62.2,559.15 -7.09,875.6 50.11,287.81 267.99,776.46 471.84,1018.01l348.94 303.61c428.63,229.28 439.68,35.44 522.81,167.31 -23.77,16.87 7.79,34.92 -34.95,2.88 17.07,59.92 6.57,37.24 44.71,65 -5.38,-49.69 -7.89,-21.16 6.4,-50.97l136.78 372.75c-28.28,27.28 21.18,32.64 -44.75,13.91l43.95 48.5c-7.75,-48.21 -13.78,-11.68 12.78,-47.59 28.11,61.33 54.58,127.42 90.31,194.63 34.48,64.88 63.89,116.13 96.2,185.78 24.04,51.86 19.53,38.46 56.46,87.36 31.63,41.89 29.31,46.1 51.67,87.78l121.92 173.53c-25.27,21.1 50.89,69.69 -46.05,0.09 13.3,43.8 -15.79,36.1 27.12,30.52 78.47,-20.24 6.03,-50.91 138.71,122.12 39.06,50.94 76.68,105.58 114.1,151.32 87.43,106.78 199.62,153.86 258.65,270.71 50.21,99.4 19.15,351.65 19.1,487.95 -0.17,542.23 89.57,372.66 -756.23,815.74 -110.96,58.12 -237.82,117.21 -363.23,166.47 -122.13,48 -238.51,113.96 -370.67,162.2l-1626.03 462.37c-534.37,130.26 -1074.54,330.13 -1536.22,572.4 -185.18,97.18 -481.32,267.03 -629.52,413.98 -50.13,49.73 -160.31,102.5 -212.42,159.89 -37.06,40.83 -24.2,35.53 -67.27,74.12l-261.08 269.81c-159.57,187.39 -302.76,398.88 -426.07,617.44 -135.28,239.77 -230.09,477.18 -305.61,758.41 -143.67,534.97 -224.28,1222.9 -287.33,1800.02 -68.84,630.15 -186.51,1226.29 -244.03,1867.09l-121.15 923.97c-57.17,350.5 -192.95,1164.47 -20.22,1500.58 94.56,183.98 253.97,393.42 450.85,485.35 262,122.36 1180.5,112.35 1469.61,104.78 336.2,-8.8 705.63,2.78 1045,6 700.68,6.65 1406.35,1.19 2107.7,0.8l6286.97 -12.21c144.42,-21.73 180.91,-215.34 126.49,-313.58l-94.63 -92.32c-6.06,-4.54 -25.14,-19.4 -40.82,-26.47 -101.58,-45.82 -949.98,-15.13 -1178.28,-19.84l-95.36 -12.01c-3.35,-1.12 -9.08,-4.5 -11.66,-5.52 -52.46,-20.67 -37.68,-1568.21 -10.51,-1629.41 3.36,-7.56 45.85,-66.97 63.04,-87.14 26.19,-30.73 41.66,-33.51 81.11,-63.15l878.82 -803.9c59.49,-52.98 124.98,-97.57 180.04,-157.55 110.2,-120.02 56.87,-59.82 180.8,-156.16l367.22 -342.11c2.67,-2.39 6.41,-6.06 8.91,-8.56 2.49,-2.48 5.85,-6.5 8.2,-9.09l837.89 -773.13c116.98,-90.68 192.35,-183.56 273.12,-257.2 180.16,-164.29 178.28,-273.1 308.88,-507.28 220.29,-395.06 69.17,-151.78 331.5,-499.78l108.54 -139.26c322.3,-324.99 -92.67,-515.83 -237.47,-797.13 -38.7,-75.21 -5.86,-29.18 -65.49,-93.7 -36.68,-39.69 -51.63,-60.28 -58,-122.43 10.36,69.64 -2.3,2.2 39.36,35.96zm-1545.61 3236.04l-18.82 13.87 -21.09 18.06 -21.02 1.12c-47.33,-12.43 -41.15,-24.15 -30.45,22.04l-16.6 11.73c-35.16,-10.23 -31.68,-19.39 -21.82,15.01 -37.42,-8.58 -24.38,-13.06 -24.38,30.34 39.35,-6.17 33.84,5.72 24.38,-30.34 28.64,7.18 22.41,13.55 21.82,-15.01 29.63,10.24 27.52,17.81 16.6,-11.73 32.21,1.38 22.15,8.87 30.45,-22.04l21.02 -1.12 21.09 -18.06 18.82 -13.87c11.03,-19.08 11.77,-15.91 21.33,-31.04l19.7 -33.2c1.37,-2.36 4.46,-7.52 6.21,-11.51 33.76,9.66 28.74,16.48 18.55,-16.93 34.74,10.66 26.73,17.83 26.73,-17.72 -41.51,-9.97 -37.99,-21.57 -26.73,17.72 -33.27,-10.85 -27.41,-16.85 -18.55,16.93 -24.24,33.23 -2.67,2.29 -20.93,31.52l-13.29 21.91c-2.32,3.82 -9.94,17.29 -13.02,22.31zm-11591.72 -285.3c-9.47,13.12 -12.27,12.09 -22.37,38.27 -10.18,26.4 -10.2,28.2 -13.93,58.63 -4.51,36.81 -3.51,84.39 -4.65,122.37 11.21,-11.54 26.58,-10.24 36.29,-17.57l4.66 -201.71zm17990.6 -2990.75l45.07 49.1c-29.27,-48.94 -3.05,-21.4 -45.07,-49.1zm-12185.9 -54.9c24.36,22.28 -22.42,5.84 45.79,30.29 37.68,13.52 44.36,9.48 82.82,11.83l-22.18 -35.8 -106.42 -6.32zm-2259.07 2189.67c-84.05,86.92 -41.83,357.79 -41.84,491.24l-1.17 1611.77c-1.16,721.39 -1.4,1443.07 -0.33,2164.45l-2894.61 -3.28 29.12 17.03c28.51,11.75 0.64,6.41 44.09,15.64 8.56,1.82 68.19,3.64 76.7,3.79 59.87,1.05 116.83,1.67 176.76,0.75 124.78,-1.88 245.85,5.68 371.94,2.84 452.27,-10.16 1864.56,-20.5 2176.05,14.6 -89.88,39.45 -1871.57,11.56 -2140.62,13.35 -273.31,1.82 -764.07,33.98 -974.99,-101.96 -267.04,-172.09 -216.27,-470.7 -184.12,-814.14 35.25,-376.64 206.5,-1448.96 273.46,-1882.45 48.58,-314.54 80.14,-636.46 133.66,-946.54 54.53,-315.92 73.21,-649.45 132.26,-969.38 86.53,-468.74 107.63,-888.49 225.73,-1378.86 37.55,-155.95 89.28,-260.07 144.94,-405.7 51.76,-135.44 195.03,-410.7 277.01,-517.9 29.07,-38.01 105.29,-126.9 123.73,-159.43 22.93,-40.46 15.52,-45.2 43.56,-82.48 12.35,-16.43 53.74,-58.75 67.76,-73.78 267.13,-286.21 185.04,-175.88 439.48,-393.56l153.11 -111.55c550.95,-413.19 1462.4,-654.91 2129.2,-847.61 184.46,-53.3 731.1,-218.06 878.02,-222.67 -79.83,30.53 -5.68,-0.43 -44,39.68 66.68,5.91 33.44,-25.5 41.56,40.46 59.97,22.35 -87.17,312.14 -117.28,387.38l-468.58 1196.61c-37.73,101.1 -54.41,174.1 -13.76,284.56l81.72 130.5c80.52,76.34 265.12,119.92 407.65,143.77 151.98,25.41 301.6,60.8 458.36,86.69 158.49,26.17 345.25,27.84 435.99,136.08 -14.99,51.04 -34.55,68.94 -60.25,102.61l-153.86 200.82c-153.04,220.87 -687.89,544.02 -270.05,974.13l379.13 328.46c59.63,45.64 214.98,217.35 364.16,326.35 46.65,34.08 374.9,392.44 629.27,575.79 65.15,46.97 36.71,35.62 88.13,88.14 53.41,54.53 48.11,17.12 187.14,167.26l719.31 663.34c73.7,52.05 121.77,108.05 189.81,164.43 134.56,111.51 90.02,102.26 166.04,170.19l719.12 679.75c447.28,443.8 381.53,153.87 379.41,1332.79 -0.22,118.24 2.57,236.17 2.6,354.24 0.01,59.16 0.78,119.24 0.52,178.18 -0.98,223.15 -72.08,160.76 -457.44,157.74l-4481.08 0.96c-454.94,0.27 -348.68,41.86 -349.26,-1009.93l4.86 -3135.04c-1.58,-206.33 -16.31,-235.83 -150.87,-317.52 -137.79,-83.64 -216.29,-9.18 -282.45,87.87 -70.78,103.81 -54.79,279.25 -54.1,406.84 2.17,401.59 23.15,3487.88 -16.65,3597.22l5.96 -3964.48zm1019.26 -2603.56c22.18,55.89 -5.82,29.62 45.58,58.66 -27.25,-71.16 12.12,-15.16 -45.58,-58.66zm1380.1 500.56c45.04,-42.47 30.59,49.47 19.03,-26.52 -0.45,-2.93 -2.86,-10.57 -3.63,-13.5 -0.95,-3.6 -6.77,-9.23 -10.55,-13.53l-4.85 53.55zm3029.95 3674.75l-5.35 59.67c-31.35,-23.45 -26.05,-18.01 -57.64,-34.95l55.75 59.48c-108.7,-36.93 -125.07,-82.26 -217.54,-160.1l-385.63 -358.23c-134.36,-108.71 -316.22,-310.88 -381.63,-360.86 -228.56,-174.63 -134.32,-120.1 -289.45,-261.35 -42.21,-38.43 -71.93,-49.11 -108.11,-85.42 -39.32,-39.44 -43.24,-51.99 -87.62,-90.64 -41.81,-36.41 -66.61,-54.73 -106.98,-88.76l-573.13 -541.52c-65.94,-62.55 -143.41,-106.21 -197.02,-174.14l-379.75 -364.75c-73.68,-73.62 -368.57,-321.57 -367.07,-379.27 1.21,-46.58 210.67,-288.37 248.82,-337.96l367.78 -481.1c97.42,-120.7 115.47,-205.07 31.39,-360.7 -96.01,-177.69 -441.11,-197.6 -690.88,-261.49 -982.2,-251.3 -770.52,-86.16 -564.9,-637.3 14.48,-38.82 20.95,-42.26 39.84,-83.17 26.97,-58.34 50.55,-118.66 71.9,-178.17 44.12,-123.03 87.22,-229.6 137.31,-357.66 69.54,-177.77 334.14,-936.46 464.38,-1007.87l711.26 -278.09c44.12,49.21 71.94,119.03 95.84,184.87l217.75 634.64c283.22,780.66 605.93,1778.85 868.14,2567.55l152.65 468.43c243.38,648.25 471.79,1414.07 709.63,2083.72 51.69,145.57 264.22,770.05 273.77,875.84 8.02,-101.79 3.51,-12.01 -33.54,-50.68zm-1010.54 -2945.82c10.84,51.52 9.65,43.49 45.26,68.74 -9.85,-29.62 -3.27,-12.79 -18.02,-35.28 -2.54,-3.89 -19.83,-24.19 -27.24,-33.46zm1.21 -1802.31l-36.91 -104.72c47.54,3.05 203.5,93.8 333.09,148.15 133.52,55.99 232.9,82.74 374.43,120.24 746.53,197.87 1418.88,157 2126.05,-111.14 120.76,-45.78 225.44,-115.22 338.64,-167.01l17.98 62.53 35.15 -63.83c42.37,109.46 -696.51,2072.33 -794.28,2353.19 -133.31,382.97 -271.97,823.57 -410.45,1184.6l-353.17 1044.91c-28.84,53.13 -62.85,57.13 -98.14,96.74 -118.63,-203.07 -487.91,-1357.65 -613.85,-1726.76 -62.47,-183.04 -143.21,-387.94 -197.28,-583.09 -122.28,-441.46 -518.13,-1526.41 -692.83,-2032.68 -20.76,-60.16 -102.37,-231.09 -62.87,-296.24l34.43 75.11zm1602.03 4486.12c-63.25,53.1 1.66,13.38 -78.4,32.02 35.7,26.41 -14.38,30.88 44.84,8.82 44.68,-16.65 18,6.66 33.57,-40.84zm-2103.07 -6946.85c54.43,-74.25 39.26,-231.51 40.65,-336.44 1.74,-132.29 5.26,-266.44 0.7,-398.42 81.75,13.35 140.52,72.15 215.72,111.91 69.19,36.59 133.26,69.09 210.58,107.81 1030.93,516.39 2079.35,494.45 3127.36,31.21l447.98 -215.09c1.14,230.16 42.68,488.9 76.82,713.12 13.6,89.42 49.85,220.75 79.65,307.73 14.06,41.02 37.01,97.93 55.92,139.22 36.37,79.4 53.35,70.79 21.53,158.84 4.29,-3.94 11.23,-15.35 13.14,-11.52 1.76,3.52 9.66,-8.54 11.82,-10.9 9.86,-10.78 18.06,-21.2 22.11,-27.49l-275.18 798.7c-61.83,186.55 -107.14,205.3 -248.26,302.83 -301.36,208.25 -795.78,402 -1172.13,472.47 -570.22,106.77 -1342.14,12.41 -1844.31,-232.68l-358.75 -188.02c-51.01,-26.49 -119.82,-71.2 -165.19,-98.95 -183.73,-112.36 -172.32,-275.12 -271.81,-559.52 -25.12,-71.83 -42.76,-129.12 -70.16,-200.37 -28.14,-73.17 -67.01,-132.09 -89.2,-194.74 -48.14,-135.91 72.1,-270.1 101.53,-408.46 16.35,-76.91 24.55,-156.33 35.13,-235.52 15.89,-118.8 -6.37,-187.96 46.67,-253.85 2.5,77.94 -21.02,162.56 -12.32,228.12zm5598.95 -3676.04c-28.31,-25.67 11.03,-5.3 -37.36,-20.12 -21.31,-6.53 -23.85,-6.61 -47.34,-7.25 -26.05,-0.74 -71.52,11.21 -73.6,11.92 -3.05,114.07 24.91,-9.97 -93.55,121.79 -80.79,89.87 -127.93,349.62 -189.09,520.62 -81.5,227.83 -192.71,464.93 -296.75,658.65 -59.84,111.4 -108.65,194.99 -180.29,297.09l-211.73 268.52c-82.35,125.73 -251.23,265.9 -366.24,360.63 -285.08,234.84 -405.82,290.67 -726.82,461.32 -235.25,125.06 -413.54,190.74 -696.31,257.54 -443.58,104.77 -1279.05,64.3 -1655.82,-132.87 -0.14,-3.13 -1.59,-8.4 -1,-9.33 0.55,-0.92 3.86,-7.02 4.52,-7.91 23.98,-32.85 -25.59,7.16 29.91,-10.37l-68.12 -35.51c4.17,4.18 12.82,14.46 14.44,16.46l13.52 20.64c-175.07,18.34 -650.9,-298.75 -824.72,-417.33l-181.24 -153.52c-114.37,-123.83 -120.59,-93.7 -260.22,-272.33l-147.79 -154.92c-276.75,-333.86 -505.67,-731.86 -651.15,-1139.03 -54.33,-152.07 -101.22,-409.41 -173.26,-534.55 -103.35,-179.53 -368.64,-135.94 -415.44,54.81 -32.57,-22.09 -32.88,35.68 -23.73,-41.88 -53.99,37.44 -9.07,-17.24 -43.65,82.68l-8.72 26.24c-319.17,-37.9 -935.48,-1142.9 -642.65,-1794.35 60.42,-134.38 156.64,-117.49 232.63,-117.93 10.56,-40.98 -6.74,-16.14 20.37,-40.33 142.33,-57.36 199.76,182.39 265.68,234.57 78.14,61.86 261.91,60.07 318.9,-88.14 51.78,55.08 53.87,-7.2 25.63,66.16 45.33,-26.18 29.68,0.23 49.27,-63.36 -36.05,25.5 -3.92,1.87 -39.58,14.82 -11.35,-54.37 -22.82,-9.04 0.1,-88.47 30.01,34.81 30.42,-43.71 29.38,56.2 20.39,-20.89 16.88,10.44 35.17,-61.51l7.63 -498.94c-30.14,-30.32 -11.29,1.32 -27.09,-46.16 -20.97,-63.01 15.25,-173.97 39.17,-254.18 50.36,49.31 29.23,-11.92 29.27,66.98l30.52 -69.43c-38.02,16.34 2.06,19.52 -46.43,-7.79 19.23,-65.48 49.07,-114.35 75.54,-161.32 125.73,-223.12 173.81,-231.67 321.96,-335.34 456.56,-319.51 944.66,-237.72 1474.92,-297.73 241.37,-27.3 534.87,-59.89 769.95,-115.85 242.92,-57.82 486.85,-102.64 715.7,-170.86 743.58,-221.67 1044.64,-359.14 1637.48,-787.03 109.39,-78.96 117.01,-109.75 114.08,-45.43l70.67 -5.46 -31.06 -22.21c-3.32,-2 -18.98,-6.5 -24.88,-6.6 85.57,4.52 67.84,-7.35 91.38,70.37 -80.32,52.73 68.97,2.91 -13.34,6.55 -1.8,0.08 -17.47,-9.67 -21.93,-13.53 7.78,44.57 -8.65,5.97 12.23,47.93 17.21,34.53 3.19,8.41 31.17,29.58 -10.11,-64.97 -18.84,-12.09 8.5,-53.82 82.97,211.83 264.49,538.66 438.47,697.91l322.29 243.21c220.4,124.78 378.08,179.26 570.9,350.66 44.89,39.89 54.68,59.11 86.26,109.05 27.68,43.78 46.73,55.88 77.45,101.63 290.13,431.97 120.29,1040.41 249.47,1256.32 69.86,116.77 272.8,130.7 389.63,13.46 2.28,-2.27 112.98,-232.86 343.54,-203.9 85.53,10.74 169.91,109.78 206.7,178 -27.89,25.92 8.99,30.69 -44.67,8.84 21.94,48.91 0.04,27.43 44.11,54.94 -13,-53.4 -22.71,-9.4 14.73,-54.46 295.61,754.79 -274.2,1811.38 -716.71,1833.95l55.74 -35.55c-71.93,-4.05 -33.8,10.52 -75.56,-19.74 14.34,43.12 12.4,23.05 3.26,38.63 -47.27,-42.41 -68.87,-88.39 -115.11,-134.15 -50.5,-50 -105.12,-61.49 -148.52,-98.04l49.22 -10.14zm-7582.18 -2192.98l-102.12 4.85c-88.58,-131.7 -159.38,-618.48 -201.72,-838.54 -52.68,-273.75 -53.43,-712.34 -42.96,-998.67 -53.92,-15.2 -19.13,8.17 -33.81,-40.73l11.74 -198.53c20.6,-167.04 112.22,-547.08 159.44,-683.82 44.01,-127.5 210.32,-500.12 296.85,-626.88 54.56,-79.94 53.5,-108.39 192.04,-285.94 153.86,-197.19 356.36,-420.75 544.74,-572.35 206.91,-166.51 238.85,-203.6 476.57,-353.91 1025.6,-648.43 2322.13,-779.03 3737.26,-610.32 454.86,54.23 1082.2,266.13 1488.41,496.51l332.16 215.84c40.73,29.41 50.35,34.21 84.2,57.44 161.93,111.18 255.48,195.99 347.35,344.56 97.48,157.66 119.72,205.49 250.26,315.41 250.93,211.31 315.7,331.27 491.99,628.45 190.59,321.31 370.96,887.42 393.7,1265.43 32.44,539.05 -16.92,1249.74 -168.88,1781.47 -15.11,52.84 -13.61,62.44 -51.83,90.41l-70.84 15.02 -87.79 0.36c-0.63,-63.91 11.04,-92.65 -26.62,-132.19l-9.48 42.86c-18.08,-23.67 2.79,20.51 -19.37,-33.83l-18.31 -88.85c-34.02,-271.18 -125.84,-541.59 -285.26,-757.95 -144.34,-195.88 -216.33,-240.91 -405.69,-353.2l-298.57 -151.14c38.5,-40.08 1.66,-33.86 54.59,-26.83 -12.81,-23.18 17.59,-28.27 -32.3,-13.54l-35.04 -12.85c7.03,-32.48 12.46,-21.94 -22.68,-26.92 0,38.62 -11.3,33.91 22.68,26.92 -8.78,39.51 -10.77,23.75 35.04,12.85 -69.28,35.59 -67.73,-2.25 -175.05,-67.63 -290.22,-176.78 -588.98,-699.02 -581.16,-1057.01l25.59 -113.43c2.41,136.08 -16.2,212.11 35.24,281.67l1.15 -357.98 -38.03 17.51c-6.64,-132.01 -67.5,-211.52 -191.75,-239.97 35.61,-37.71 -48.63,-47.52 54.23,-26.07 -54.77,-60.76 -159.55,-45.28 -192.04,-23.58 11.95,22.17 11.59,29.49 9.35,50.38l-315.76 252.9c-27.24,20.12 -17.32,10.83 -39.09,32.62l-24.85 28.3c-2.6,2.52 -6.15,6.34 -8.87,8.72 -27.45,23.95 -55.32,32.16 -88.03,54.32 -36.6,24.79 -41.56,39.77 -74.29,67.23l-249.42 175.42c-61.89,36.24 -115.59,68.65 -176.79,107.27 -1938.77,1223.57 -3646.46,326.71 -4585.05,1416.03 -83.62,97.05 -135.89,184.99 -194.43,302.43 -115.68,232.11 -112.71,411.74 -152.26,561.16 -8.54,32.29 -5.15,29.25 -19.47,41.02 -32.27,26.58 14.93,50.8 -24.99,-2.7z"/>
   <path class="fil0" d="M17783.8 17887.64c32.1,-21.63 39.94,-24.95 76.02,-42.58 -49.97,-19.48 4.73,48.5 -53.87,-35.02 101.62,-21.56 204.04,-143.09 487.65,-254.84 205.78,-81.1 134.66,-44.77 155.96,-111.57 -299.69,-8.64 -571.85,109.61 -813.39,248.7l-137.54 74.05c-98.09,49.8 -164.23,128.57 -263.97,142.33 10.9,-56.18 -38,-6.19 32.98,-54.64l-68.29 56.55c28.55,10.37 29.77,1.49 35.17,32.23 -49.83,43.14 -98.19,72.51 -154.16,113.7l-379.71 398.52c-46.14,66.43 -62.87,93.13 -122.63,142.38 -31.25,25.74 -221.82,286.2 -298.46,356.97 -48.68,44.95 -24.54,5.66 -62.94,61.29 -25.91,37.55 -16.72,46.15 -52.26,87.51l-607.72 653.09c-2.57,2.61 -6.14,6.47 -8.63,9.13 -106.62,113.47 -95.98,59.79 -224.48,182.76 -25.71,24.59 -35.15,40.08 -66.95,60.17 -99.15,62.63 -43.19,32.25 -94.1,-9.56 9.72,-1.67 52.49,-7.66 59.31,-10.67 4.33,-1.92 9.16,-5.01 12.95,-7.11 3.89,-2.17 8.94,-7.31 11.99,-9.33l21.83 -23.39c-35.69,25.24 -84.38,50.22 -124.91,83.38 46.78,17.91 -12.85,-49.75 54.06,34.15 -216.31,76.99 -286.65,305.82 -446.71,131.27 -38.41,-41.89 -84.03,-91.7 -118.9,-129.86 -119.01,-130.22 -123.58,-189.31 34,-280.02 367.36,-211.49 747.4,-613.4 1036.79,-912.41l710.46 -759.36c46.16,-47.76 79.18,-76.3 128.11,-120.86 22.53,-20.53 43.07,-35.37 65.38,-59.31 119.15,-127.81 170.18,-179.31 313.96,-287.43 29.39,-22.1 43.57,-27.4 74.49,-49.66 756.73,-545.08 907.07,-429.04 1230.17,-589.52 -326.78,-49.52 -1016.25,153.44 -1287.07,304.77 -150.69,84.2 -246.91,123.5 -370.43,231.2l-112.17 81.54c-7.85,5.55 -27.53,19.28 -31.08,22.02l-188.48 165.6c-200.48,173.91 -171.34,162.38 -307.18,294.73 -37.37,36.4 -69.19,50.84 -107.62,88.11 -62.16,60.25 -129.49,137.32 -194.6,194.43 -68.18,59.79 -180.38,134.18 -222.08,185 -127.01,154.75 -273.64,255.23 -416.55,381.94 -64.16,56.92 -130.05,133.77 -196.83,191.12l-435.17 325.03c-374.55,-549.95 -281.13,-1519.74 -2.45,-2088.74l384.64 -591.51c29.36,-34.41 45.06,-40.15 82.63,-75.92 278.56,-265.13 402.37,-429.77 823.96,-611.93 349.89,-151.18 609.76,-244.39 1058.33,-237.11 641.73,10.42 1076.49,158.71 1590.68,500.77 38.26,25.46 51.15,44.71 84.32,77.16 75.7,74.06 126.05,67.69 340.53,296.05 30.19,32.15 48.54,53.93 77.16,83.5 39.62,40.94 43.87,34.89 78.85,80.78 47.49,62.29 87.34,118.61 133.04,187.21 49.87,74.87 89.95,124.67 131.09,194.4 -26.93,34.2 9.88,24.68 -45.32,27.24 29.91,38.92 13.73,19.48 44.78,40.16 -12.51,-53.53 -25.55,-12.68 13.13,-52.83l24.8 56.28c-30.69,27.89 7.5,31.46 -46.64,11.73 22.83,51.19 2.44,27.09 43.96,53.91 -13.79,-52.28 -24.06,-11.17 12.78,-53.71 398.59,915.53 370.24,1663.63 -137.87,2543.49 -145.92,252.67 -334.34,454.45 -570.36,636.43 -396.36,305.6 -922.32,525.06 -1425.12,570.18 -319.57,28.67 -668.13,-6.12 -969.95,-94.03 -37.83,-11.02 -778.83,-274.03 -672.17,-356.51l-14.69 -17.74c-48.66,52.67 -18.38,28.89 -28.99,-1.75 25.17,-38.49 46.18,-50.59 66.04,-66.81l-49.14 -10.65 106.57 -70.98c41.5,-25.39 51.66,-32.5 94.8,-64.8 149.48,-111.97 249.47,-158.55 364.02,-272.31l317.99 -337.97c38.62,-45.53 44.86,-41.26 72.88,-84.51 25.08,-38.7 28.03,-56.17 59.78,-100.86 0.42,-0.59 19.96,-26.36 22.71,-29.83l177.36 -246.63c89.25,-99.98 55.01,-106.54 164.34,-261.46l133.88 -220c1.84,-3.9 7.83,-19.58 10.17,-24.38 31,-63.86 23.97,-38.09 68.1,-92.63 80.64,-99.68 133.54,-236.54 182.62,-294.95 137.52,-163.65 96.9,-147.44 138.47,-199.31l416.43 -381.6c56.97,-44.02 40.84,-47.73 104.99,-50.44 -66.12,46.14 10.18,-12.03 -35.53,46.12zm-3932.65 -773.07l-1.13 0.09c45.53,67.92 24,-7.78 30.95,85.36 -47.93,-35.27 -33.03,-1.66 -37.66,-56l-28.75 44.09c22.44,-3.59 8.33,-7.96 43.81,12.14 -64.35,172.69 -138.7,334.23 -182.89,549.78 -172.6,841.91 -80.01,1110.09 153.84,1841.31 -29.29,17.7 8.56,32.49 -47.79,0.09 20.21,59.25 -8.41,31.35 43.29,64.17 -7.29,-59.07 -18.81,-6.7 14.95,-54.16l154.32 325.47 333.01 465.59c89.63,117.36 188.44,235.53 300.76,335.34 100.09,88.95 218.66,214.66 332.64,287.24 120.59,76.8 225.12,164.87 383.81,252.28 428.22,235.91 1010.83,396.05 1498.26,366.98 660.22,-39.36 1369.86,-250.5 1877.22,-646.01 65.33,-50.93 111.27,-94.25 176.58,-142.77 237.68,-176.52 238.88,-207.97 390.91,-405.86 37.52,-48.84 33.51,-20.27 68.87,-72.99 177.5,-264.6 94.92,-107.61 239.76,-396.39 80.32,-160.15 137.05,-256.93 186.01,-436.21 18.28,24.76 38.03,-25.47 13.21,68.28 53.33,-34.58 34.39,3.7 44.53,-78.71 -38.07,16.14 -3.97,18.07 -41.59,-3.19 4.35,-57.57 5.46,-45.4 19.78,-97.83l18.85 -69.84c12.68,-48.3 25.93,-92.74 39.82,-155.43 179.51,-810.43 -2.53,-1727.72 -475.05,-2393.35 -147.8,-208.18 -243.72,-348.87 -426.35,-511.78 -40.45,-36.07 -61.82,-48.02 -97.86,-80.03 -156.03,-138.56 -91.8,-71.61 -218.23,-168.35l-344.22 -224.97c-108.08,-51.3 -282.53,-143.84 -385.41,-167.81 42.09,-51.23 -6.29,-26.59 56.92,-32.48l-69.61 -33.19c21.86,18.51 21.49,28.7 27.84,38.34 -101.19,19.38 -775.3,-249.4 -1295.26,-217.15 -628.36,38.98 -1183.45,204.82 -1695.96,540.98 -288.52,189.26 -226.97,184.59 -410.55,332.08 -80.93,65.01 -120.76,132.18 -186.54,184.4 -132.03,104.85 -51.01,77.92 -174.28,198.22 -11.23,10.96 -10.5,6.52 -25.55,26.93 -9.42,12.8 -10.82,18.87 -18.78,33.27 -2.71,4.88 -18.53,34.82 -18.61,34.95 -67.7,109.89 -163.67,252.36 -220.54,377.34l-47.34 -20.23z"/>
   <path class="fil0" d="M14845.99 21580.51l-14.22 16.53 14.22 -16.53c21.52,-18.12 40.42,-31.75 56.43,-56.75 38.52,-60.2 16.25,-39.78 3.69,-51.04 -12.85,57.45 30.22,38.52 -37.68,26.17l-148.44 -118.28c-231.47,-210.63 -128.56,-295.34 -557.09,222.48l-361.58 381.87c-93.34,89.34 -353.28,520.27 -640.4,507.7 -229.55,-10.05 -371.14,-196.64 -371.47,-404.72 -0.2,-128.95 43.11,-192.5 94.17,-277.08 56.26,-93.19 496,-433.28 591.33,-525.03 108.6,-104.53 536.09,-446 584.97,-525.53 -33.17,-82.5 -59.91,-80.69 -129.13,-169.9 -42.77,-55.11 -81.24,-108.62 -132.23,-143.93l-178.07 154.35c-15.24,12.78 1.67,1.45 -29.88,23.08 -167.59,114.91 -120.91,108.83 -205.49,166.63 -136.82,93.52 -65.83,49.47 -169.05,149.24 -40.86,39.49 -72.62,49.94 -120.91,91.64 -278.47,240.47 -549.24,411.51 -685.82,711.81 -152.86,336.07 -30.22,497.92 -44.94,630.52 -19.52,-11.21 -22.03,8.17 -38.97,-27 3.74,18.32 0.74,20.02 10.34,37.12 18.69,33.31 10.52,21.8 35.17,41.49 -10.15,-66.75 -25.87,-8.87 15.06,-64.08 21.97,81.98 76.16,174.88 132.23,246.8 60.53,77.66 203.49,217.53 317.26,264.18 192.5,78.93 395.22,102.58 596.64,34.47 170.25,-57.56 112.08,-68.21 176.72,-29.02 -49.82,-11.86 -40.46,-24.79 -40.46,22.01l40.46 -22.01c37.6,8.19 17.37,10.94 19.09,-22.15 28.08,6.55 22.23,13.27 22.23,-13.93 -34.97,-10.94 -31.86,-20.49 -22.23,13.93 -3.34,-0.55 -9.22,0.43 -10.14,0.04l-10.85 -19.23c113.2,-75.12 359.87,-284.08 431.32,-400.74 77.27,-126.17 191.21,-251.5 289.21,-366.72l535.88 -563.43c1.7,-5.3 7.79,-3.85 11.81,-5.5 -0.96,4.6 -2.47,10.66 -3.41,13.68l-25.77 66.83z"/>
   <path class="fil0" d="M359.69 18167.18l-4.66 201.71c-9.71,7.32 -25.08,6.03 -36.29,17.57 -45.82,295.84 -66.67,624.75 -123.31,918.64 -26.46,137.27 -41.03,321.38 -54.68,462.32 -77.93,804.08 -368.3,1604.92 218.4,2122.84 213.19,188.19 423.02,245.48 793.15,252.2 2434.27,44.19 4878.34,31.67 7315,29.8 696.17,-0.54 1394.05,3.83 2090,-2.74 185.71,-1.75 893.36,18.66 1006.47,-29.28 128.33,-54.38 251.75,-329.59 -13.25,-495.1 -63.88,-39.89 -127.05,-62.65 -208.25,-47.04l-1119.07 -6.76c-15.15,-252.94 -3.95,-539.36 -2.94,-795.6 0.41,-104.04 -20.74,-746.57 19.93,-774.53 26.79,-92.9 122.41,-135.64 184.14,-191.58 72.13,-65.38 134.53,-118.61 192.91,-178.92l595.22 -536.8c79.96,-64.61 123.96,-117.73 201.14,-189.12 40.27,-37.24 376.5,-305.19 383.63,-360.14 0,-43.4 -13.04,-38.92 24.38,-30.34 -9.85,-34.4 -13.34,-25.24 21.82,-15.01l16.6 -11.73c-10.7,-46.2 -16.88,-34.48 30.45,-22.04l21.02 -1.12 21.09 -18.06 18.82 -13.87c3.08,-5.03 10.7,-18.5 13.02,-22.31l13.29 -21.91c18.26,-29.23 -3.32,1.71 20.93,-31.52 -8.86,-33.78 -14.72,-27.78 18.55,-16.93 -11.26,-39.29 -14.78,-27.69 26.73,-17.72 59.45,-19.11 610.84,-553.59 736.47,-655.31l358.15 -330.9c149.84,-177.52 254.03,-541.77 516.15,-884.29 111.98,-146.36 218.66,-222.6 312.06,-395.73 102.48,-189.95 -84.84,-363.5 -164.08,-473.37 -59.56,-82.56 -238.93,-337.21 -305.66,-386.04 -41.66,-33.77 -29,33.68 -39.36,-35.96 6.37,62.16 21.31,82.74 58,122.43 59.64,64.52 26.79,18.5 65.49,93.7 144.8,281.3 559.77,472.14 237.47,797.13l-108.54 139.26c-262.33,348 -111.21,104.73 -331.5,499.78 -130.6,234.18 -128.72,342.99 -308.88,507.28 -80.76,73.64 -156.14,166.52 -273.12,257.2l-837.89 773.13c-2.36,2.6 -5.72,6.62 -8.2,9.09 -2.51,2.51 -6.25,6.18 -8.91,8.56l-367.22 342.11c-123.93,96.34 -70.6,36.13 -180.8,156.16 -55.06,59.98 -120.55,104.57 -180.04,157.55l-878.82 803.9c-39.45,29.65 -54.92,32.43 -81.11,63.15 -17.19,20.17 -59.68,79.57 -63.04,87.14 -27.17,61.2 -41.95,1608.74 10.51,1629.41 2.58,1.02 8.31,4.4 11.66,5.52l95.36 12.01c228.3,4.71 1076.7,-25.98 1178.28,19.84 15.68,7.07 34.77,21.93 40.82,26.47l94.63 92.32c54.42,98.24 17.93,291.84 -126.49,313.58l-6286.97 12.21c-701.35,0.39 -1407.02,5.85 -2107.7,-0.8 -339.38,-3.22 -708.8,-14.8 -1045,-6 -289.11,7.57 -1207.61,17.59 -1469.61,-104.78 -196.88,-91.93 -356.29,-301.38 -450.85,-485.35 -172.74,-336.11 -36.95,-1150.08 20.22,-1500.58l121.15 -923.97c57.52,-640.8 175.19,-1236.94 244.03,-1867.09 63.05,-577.12 143.66,-1265.05 287.33,-1800.02 75.53,-281.23 170.33,-518.64 305.61,-758.41 123.3,-218.56 266.5,-430.05 426.07,-617.44l261.08 -269.81c43.07,-38.58 30.21,-33.29 67.27,-74.12 52.11,-57.39 162.28,-110.15 212.42,-159.89 148.2,-146.96 444.34,-316.8 629.52,-413.98 461.68,-242.27 1001.86,-442.14 1536.22,-572.4l1626.03 -462.37c132.16,-48.25 248.53,-114.21 370.67,-162.2 125.41,-49.26 252.27,-108.35 363.23,-166.47 845.8,-443.07 756.06,-273.5 756.23,-815.74 0.05,-136.3 31.12,-388.55 -19.1,-487.95 -59.03,-116.85 -171.22,-163.92 -258.65,-270.71 -37.42,-45.74 -75.04,-100.38 -114.1,-151.32 -132.69,-173.04 -60.24,-142.36 -138.71,-122.12 42.98,122.86 356.95,439.86 451.73,532.99 83.3,81.85 44.25,211.33 34.75,427.75 -7.17,163.5 -15.51,315.73 -19.16,478.73l-139.2 73.73c-310.37,141.56 -618.11,332.53 -1009.05,497.06 -794.27,334.29 -1761,501.52 -2635.21,800.29 -436,149 -781.45,324.24 -1161.34,556.78 -649.3,397.47 -1265.36,1115.62 -1527.39,1908.46 -74.77,226.22 -111,439.95 -168.29,682.53 -55.57,235.32 -57.22,535.64 -110.27,755.23 -23.78,98.44 -201.46,1468.82 -188.58,1537.75z"/>
   <path class="fil0" d="M15143.64 20031.66c-77.15,54.63 -219.17,170.77 -300.08,200.66 -57.13,-39.71 -237.06,-264.23 -266.18,-344.18 316.71,-164.91 687.37,-486.84 938.21,-740.56 354.86,-358.93 1051.93,-1191.88 1468.13,-1488.97 469.57,-335.19 815.6,-536.61 1402.62,-582.42l70.67 -17.63c-27.21,-56.83 -62.28,-51.33 -140.81,-71.49 -264.58,-67.92 -641.37,11.9 -889.61,86.3 -523.74,156.97 -687.71,274.11 -1080.77,583.43 -66.35,52.21 -142.02,133.78 -214.79,193.46 -74.99,61.49 -150.42,139.34 -220.62,204.16 -259.33,239.42 -1321.37,1256.89 -1545.08,1368.07 -80.81,-98.35 -135.99,-331.95 -163.58,-484.43 -105.28,-581.92 -19.21,-1092.22 227.75,-1585.12 246.61,-492.23 548.03,-771.49 969.01,-1067.74 328.4,-231.09 923.15,-374.32 1340.34,-375.84 955.21,-3.48 1950.73,624.92 2354.78,1406.69 55.2,-2.56 18.39,6.96 45.32,-27.24 -41.14,-69.73 -81.21,-119.53 -131.09,-194.4 -45.7,-68.6 -85.55,-124.92 -133.04,-187.21 -34.99,-45.9 -39.23,-39.84 -78.85,-80.78 -28.63,-29.57 -46.98,-51.35 -77.16,-83.5 -214.48,-228.36 -264.83,-221.99 -340.53,-296.05 -33.17,-32.46 -46.06,-51.7 -84.32,-77.16 -514.18,-342.07 -948.94,-490.35 -1590.68,-500.77 -448.57,-7.27 -708.43,85.93 -1058.33,237.11 -421.59,182.16 -545.4,346.8 -823.96,611.93 -37.57,35.76 -53.27,41.51 -82.63,75.92l-384.64 591.51c-278.68,569 -372.1,1538.79 2.45,2088.74l435.17 -325.03c66.78,-57.35 132.67,-134.2 196.83,-191.12 142.91,-126.71 289.54,-227.19 416.55,-381.94 41.7,-50.81 153.9,-125.21 222.08,-185 65.11,-57.11 132.45,-134.18 194.6,-194.43 38.43,-37.26 70.25,-51.7 107.62,-88.11 135.84,-132.35 106.7,-120.82 307.18,-294.73l188.48 -165.6c3.55,-2.75 23.22,-16.48 31.08,-22.02l112.17 -81.54c123.51,-107.69 219.73,-147 370.43,-231.2 270.83,-151.33 960.3,-354.3 1287.07,-304.77 -323.1,160.48 -473.44,44.44 -1230.17,589.52 -30.92,22.26 -45.1,27.56 -74.49,49.66 -143.78,108.11 -194.81,159.62 -313.96,287.43 -22.31,23.93 -42.85,38.78 -65.38,59.31 -48.93,44.57 -81.95,73.11 -128.11,120.86l-710.46 759.36c-289.39,299.01 -669.43,700.92 -1036.79,912.41 -157.58,90.72 -153,149.8 -34,280.02 34.87,38.15 80.48,87.97 118.9,129.86 160.07,174.56 230.41,-54.28 446.71,-131.27 -66.91,-83.9 -7.28,-16.24 -54.06,-34.15zm3994.78 -2675.45l-8.7 15.18c54.14,19.73 15.95,16.16 46.64,-11.73l-24.8 -56.28c-38.68,40.15 -25.64,-0.7 -13.13,52.83zm35.25 69.09c2.91,50.74 94.96,253.13 131.01,397.71 37.1,148.86 56.54,272.5 85.01,428.36 146.26,800.62 -275.84,1698.21 -865.51,2204.66 -426.64,366.44 -880.44,518.57 -1458.45,614.35 -282.62,46.84 -688.39,-13.42 -943.6,-82.93 -469.17,-127.79 -498.51,-230.63 -711.15,-316.3 -106.66,82.47 634.34,345.48 672.17,356.51 301.81,87.92 650.38,122.7 969.95,94.03 502.8,-45.13 1028.77,-264.58 1425.12,-570.18 236.02,-181.98 424.45,-383.76 570.36,-636.43 508.11,-879.85 536.46,-1627.96 137.87,-2543.49 -36.84,42.54 -26.57,1.43 -12.78,53.71zm-3806.38 3226.36c10.61,30.64 -19.67,54.42 28.99,1.75l-28.99 -1.75zm1832.03 -2741.04c-108.08,50.5 -434.23,401.74 -514.16,493.96l-674.84 812.64c-88.32,108.18 -142.36,176.43 -229.23,266.64 -158.14,164.2 -130.23,121.05 -258.7,237.3l-253.86 227.12 -21.83 23.39c-3.05,2.02 -8.1,7.16 -11.99,9.33 -3.79,2.11 -8.62,5.2 -12.95,7.11 -6.82,3.01 -49.58,9 -59.31,10.67 50.91,41.81 -5.05,72.19 94.1,9.56 31.8,-20.09 41.24,-35.57 66.95,-60.17 128.5,-122.97 117.86,-69.29 224.48,-182.76 2.5,-2.67 6.07,-6.53 8.63,-9.13l607.72 -653.09c35.54,-41.36 26.35,-49.95 52.26,-87.51 38.39,-55.63 14.26,-16.34 62.94,-61.29 76.64,-70.77 267.21,-331.22 298.46,-356.97 59.77,-49.24 76.5,-75.95 122.63,-142.38l379.71 -398.52c55.97,-41.19 104.33,-70.56 154.16,-113.7 -5.41,-30.74 -6.63,-21.85 -35.17,-32.23zm660.48 -65.56c123.7,-71.29 216.44,-145.42 357.4,-211.13 67.43,-31.45 122.91,-53.72 201.56,-82.12 186.76,-67.45 155.52,-27.42 180.82,-85.89 -25.16,-49.48 5.94,-23.48 -72.54,-52.85 -193.72,-72.52 -496.9,31.24 -666.73,111.45 -192.03,90.71 -444.97,211.8 -592.69,329.56 -70.98,48.46 -22.07,-1.54 -32.98,54.64 99.74,-13.76 165.88,-92.52 263.97,-142.33l137.54 -74.05c241.54,-139.09 513.7,-257.35 813.39,-248.7 -21.29,66.8 49.82,30.47 -155.96,111.57 -283.61,111.75 -386.03,233.27 -487.65,254.84 58.6,83.51 3.9,15.54 53.87,35.02zm-2426.47 2739.79c61.15,-12.2 329.37,-207.52 382.9,-251.33 375.09,-307.02 607.37,-581.97 876.4,-1018.88 237.3,-385.41 481.29,-799.59 768.44,-1144.87 62.34,-74.95 299.52,-237.8 322.72,-282.12 45.72,-58.15 -30.59,0.02 35.53,-46.12 -64.14,2.72 -48.02,6.43 -104.99,50.44l-416.43 381.6c-41.57,51.86 -0.95,35.65 -138.47,199.31 -49.08,58.41 -101.98,195.27 -182.62,294.95 -44.13,54.54 -37.1,28.77 -68.1,92.63 -2.34,4.81 -8.33,20.49 -10.17,24.38l-133.88 220c-109.33,154.92 -75.1,161.48 -164.34,261.46l-177.36 246.63c-2.76,3.47 -22.29,29.24 -22.71,29.83 -31.75,44.69 -34.7,62.16 -59.78,100.86 -28.02,43.25 -34.26,38.98 -72.88,84.51l-317.99 337.97c-114.55,113.76 -214.54,160.34 -364.02,272.31 -43.14,32.31 -53.3,39.41 -94.8,64.8l-106.57 70.98 49.14 10.65z"/>
   <path class="fil0" d="M4924.59 14707.63c57.7,43.5 18.33,-12.5 45.58,58.66 12.19,54.64 -12.84,13.32 36.97,66.81 11.84,12.7 33.25,28.73 48.98,40.35 40.03,29.58 74.05,50.24 123.89,70.82 120.87,49.9 907.82,188.01 984.39,177.25l106.42 6.32 22.18 35.8 16.53 -9c3.79,4.3 9.6,9.93 10.55,13.53 0.77,2.93 3.18,10.57 3.63,13.5 11.56,76 26.01,-15.95 -19.03,26.52 -34.04,28.67 -127.65,144.71 -157.89,185.55 -106.74,144.21 -405.52,435.78 -461.73,565.75 -93.37,215.91 17.77,374.88 126.81,495.42l353.43 336.88c420.56,345.5 1000.05,926.76 1440.06,1306.2l1792.39 1660.86c66.75,63.63 124.7,124.4 179.22,174.74 48.25,44.53 55.79,45.5 60.68,116.98 15.62,228.15 -1,1226.13 -0.63,1531.64l-5190.62 -5.32c-10.63,-1307.19 14.74,-2611.02 15.88,-3916.13 0.22,-245.54 10.02,-385.49 -148.34,-504.7 -160.75,-121.01 -404.8,-5.17 -408.62,155.15l-5.96 3964.48c39.8,-109.33 18.82,-3195.62 16.65,-3597.22 -0.69,-127.59 -16.68,-303.03 54.1,-406.84 66.16,-97.05 144.66,-171.51 282.45,-87.87 134.56,81.69 149.29,111.19 150.87,317.52l-4.86 3135.04c0.58,1051.79 -105.67,1010.2 349.26,1009.93l4481.08 -0.96c385.37,3.02 456.46,65.41 457.44,-157.74 0.26,-58.94 -0.51,-119.03 -0.52,-178.18 -0.03,-118.07 -2.82,-236 -2.6,-354.24 2.12,-1178.92 67.87,-888.99 -379.41,-1332.79l-719.12 -679.75c-76.03,-67.93 -31.48,-58.68 -166.04,-170.19 -68.04,-56.38 -116.12,-112.38 -189.81,-164.43l-719.31 -663.34c-139.03,-150.14 -133.72,-112.73 -187.14,-167.26 -51.41,-52.51 -22.97,-41.17 -88.13,-88.14 -254.37,-183.35 -582.62,-541.71 -629.27,-575.79 -149.18,-109 -304.53,-280.71 -364.16,-326.35l-379.13 -328.46c-417.84,-430.1 117.01,-753.25 270.05,-974.13l153.86 -200.82c25.7,-33.67 45.26,-51.56 60.25,-102.61 -90.74,-108.24 -277.5,-109.91 -435.99,-136.08 -156.76,-25.89 -306.38,-61.28 -458.36,-86.69 -142.53,-23.84 -327.13,-67.43 -407.65,-143.77l-81.72 -130.5c-40.65,-110.46 -23.97,-183.46 13.76,-284.56l468.58 -1196.61c30.11,-75.25 177.24,-365.03 117.28,-387.38 -42.39,50.69 -159.57,367.58 -193.34,453.55 -65.74,167.36 -123.77,312.28 -182.36,473.09 -105.92,290.7 -374.01,759.65 -261.49,965.47z"/>
   <path class="fil0" d="M13814.56 17188.1c-309.56,655.29 -363.01,1434.93 -130.72,2146 33.31,101.92 64.32,174.47 97.69,257.32 56.35,32.4 18.5,17.61 47.79,-0.09 -233.85,-731.22 -326.44,-999.4 -153.84,-1841.31 44.19,-215.55 118.54,-377.09 182.89,-549.78 -35.47,-20.11 -21.36,-15.73 -43.81,-12.14zm10.26 2467.49c-3.53,221.01 585.15,936.23 764.81,1110.62 887.41,861.38 2111.14,1158.25 3296.7,716.21 769.33,-286.86 1303.64,-728.07 1726.36,-1425.98 47.62,-78.61 190.58,-363.77 182.44,-454.06 24.82,-93.75 5.07,-43.52 -13.21,-68.28 -48.96,179.28 -105.68,276.06 -186.01,436.21 -144.84,288.77 -62.26,131.79 -239.76,396.39 -35.36,52.72 -31.35,24.15 -68.87,72.99 -152.03,197.89 -153.23,229.34 -390.91,405.86 -65.31,48.52 -111.25,91.83 -176.58,142.77 -507.36,395.51 -1217,606.65 -1877.22,646.01 -487.43,29.07 -1070.04,-131.07 -1498.26,-366.98 -158.69,-87.41 -263.21,-175.48 -383.81,-252.28 -113.98,-72.58 -232.55,-198.29 -332.64,-287.24 -112.32,-99.81 -211.13,-217.98 -300.76,-335.34l-333.01 -465.59 -154.32 -325.47c-33.76,47.47 -22.24,-4.91 -14.95,54.16zm6014.84 -131.93c274.71,-796.35 142.1,-1802.45 -231.93,-2481.94 -264.81,-481.05 -313.48,-453.68 -578.72,-750.3 -45.06,-50.39 -40.92,-54.79 -94.74,-99.54 -200.44,-166.65 -687.47,-513.37 -947.95,-573.28 -63.2,5.89 -14.83,-18.76 -56.92,32.48 102.88,23.97 277.32,116.51 385.41,167.81l344.22 224.97c126.43,96.74 62.21,29.79 218.23,168.35 36.04,32.02 57.41,43.96 97.86,80.03 182.63,162.9 278.54,303.59 426.35,511.78 472.52,665.64 654.56,1582.92 475.05,2393.35 -13.89,62.69 -27.14,107.13 -39.82,155.43l-18.85 69.84c-14.32,52.43 -15.43,40.26 -19.78,97.83 37.62,21.25 3.52,19.33 41.59,3.19zm-1922.96 -3938.24c-1050.35,-367.04 -2091.92,-268.99 -2997.48,326.87 -60.31,39.67 -165.92,110.23 -217.13,154.76 -329.5,286.56 -472.23,413.45 -710.71,794.26l-140.23 253.25 47.34 20.23c56.87,-124.98 152.84,-267.45 220.54,-377.34 0.08,-0.13 15.9,-30.07 18.61,-34.95 7.95,-14.4 9.35,-20.47 18.78,-33.27 15.05,-20.42 14.32,-15.97 25.55,-26.93 123.26,-120.29 42.25,-93.37 174.28,-198.22 65.77,-52.22 105.6,-119.38 186.54,-184.4 183.58,-147.49 122.02,-142.83 410.55,-332.08 512.51,-336.16 1067.6,-502 1695.96,-540.98 519.96,-32.26 1194.07,236.52 1295.26,217.15 -6.35,-9.64 -5.98,-19.84 -27.84,-38.34zm-4073.4 1558.59c4.64,54.34 -10.26,20.73 37.66,56 -6.95,-93.14 14.58,-17.44 -30.95,-85.36l-6.72 29.36z"/>
   <path class="fil0" d="M9271.65 18907.67c-29.87,-82.97 -300.14,-297.79 -365.2,-358.06 -169.36,-156.89 -401.45,-384.7 -566.61,-514.57l-1322.24 -1227.56c-72.26,-59.39 -114.85,-112.12 -181.97,-171.54l-466.29 -437.01c-31.46,-29.23 -62.92,-54.45 -94.55,-96.81l422.43 -530.62c165.35,-206.85 373.96,-385.65 240.51,-648.98 -108.12,-213.32 -387.99,-227.38 -663.37,-293.99 -114.19,-27.63 -735.91,-164.21 -783.98,-191.31 6.64,-65.19 117.91,-243 155.22,-324.31 93.25,-203.2 175.94,-459.53 271.45,-685.29 88.85,-210.02 173.39,-466.89 272.86,-683.6 194.31,-423.35 80.26,-250.51 515.01,-441.39 69.17,-30.37 283.84,-143.28 327.75,-150.39 75.08,107.66 598.59,1725.69 651.19,1881.99l640.24 1902.91c7.41,9.26 24.7,29.57 27.24,33.46 14.75,22.49 8.16,5.67 18.02,35.28 -7.83,104.44 651.38,1966.02 717.48,2169.11 36.02,110.7 206.09,660.17 247.8,707.97 37.04,38.67 41.56,-51.1 33.54,50.68 -9.55,-105.78 -222.08,-730.27 -273.77,-875.84 -237.84,-669.65 -466.26,-1435.48 -709.63,-2083.72l-152.65 -468.43c-262.21,-788.7 -584.92,-1786.89 -868.14,-2567.55l-217.75 -634.64c-23.9,-65.84 -51.72,-135.65 -95.84,-184.87l-711.26 278.09c-130.24,71.41 -394.84,830.1 -464.38,1007.87 -50.09,128.07 -93.19,234.63 -137.31,357.66 -21.34,59.52 -44.93,119.83 -71.9,178.17 -18.9,40.91 -25.36,44.35 -39.84,83.17 -205.62,551.14 -417.3,385.99 564.9,637.3 249.77,63.89 594.87,83.8 690.88,261.49 84.08,155.63 66.03,240 -31.39,360.7l-367.78 481.1c-38.15,49.58 -247.61,291.38 -248.82,337.96 -1.5,57.7 293.39,305.65 367.07,379.27l379.75 364.75c53.61,67.92 131.08,111.59 197.02,174.14l573.13 541.52c40.37,34.03 65.17,52.34 106.98,88.76 44.38,38.64 48.3,51.19 87.62,90.64 36.18,36.3 65.9,46.99 108.11,85.42 155.13,141.25 60.9,86.73 289.45,261.35 65.4,49.98 247.26,252.15 381.63,360.86l385.63 358.23c92.47,77.83 108.84,123.16 217.54,160.1l-55.75 -59.48z"/>
   <path class="fil0" d="M14252.43 12755.65c409.86,128.44 880.7,213.58 1297.78,337.14 794.45,235.38 1610.64,477.48 2182.48,1076.42 250.47,262.35 489.52,649.62 617.6,1007.22 42.02,27.7 15.8,0.17 45.07,49.1 56.19,275.1 756.85,159.63 428.21,-464.65 -458.57,-871.1 -1234.14,-1549.62 -2218.58,-1925.73 -659.48,-251.94 -1400.15,-427.03 -2141.77,-621.51 -842.03,-220.82 -1082.4,-435.48 -1707.95,-701.13 -351.23,-149.16 -247.95,-15.92 -284.33,-992.65 -83.08,53.58 -38.22,429.06 -32.8,552.68 12.48,283.93 0.5,345.43 161.07,421.43 385.55,182.45 1283.43,612.77 1615.54,704.69 853.62,236.24 1887.03,444.74 2664.74,804.53 277.26,128.25 323.15,171.8 548.51,320.75 55.01,36.36 115.57,80.52 172.07,110.55 151.95,80.76 204.04,184.48 319.08,265.1 119.84,83.98 213.21,148.24 299.88,265.72l483.75 685.3c106.67,185.93 275.14,460.18 61.24,606.3 -137.03,93.59 -276.97,66.17 -362.96,-89.04l-223.68 -483.23c-13.52,-20.35 -17.15,-20.27 -32.31,-39.87 -31.06,-40.16 -13.77,-16.85 -28.49,-42.69l-148.08 -223.77c-51.76,-85.01 -303.66,-354.45 -373.18,-408.76 -200.27,-156.43 -389.46,-296.64 -615.17,-413.94 -245.68,-127.68 -664.83,-275.95 -930.92,-362.29 -447.19,-145.11 -907.15,-257.43 -1363.85,-373.12 -104.58,-26.5 -415.07,-131.27 -432.94,-64.55z"/>
   <path class="fil0" d="M967.38 21575.38c-247.42,-24.55 -398.91,-208.04 -400.85,-477.99 -2.29,-313.92 190.33,-1532.24 253.92,-1962.86 47.12,-319.1 145.13,-876.58 168.3,-1155.07 21.4,-257.31 88.43,-524.03 108.35,-779.75l229.17 -1544.21c64.66,-251.22 134,-448.79 235.86,-649.36 278.63,-548.66 557.27,-832.7 1035.25,-1178.64 414.57,-300.07 1017.76,-511.56 1549.09,-665.02 227.73,-65.78 460.24,-128.79 687.18,-198.61l686.58 -188.82c38.32,-40.11 -35.83,-9.15 44,-39.68 -146.93,4.61 -693.57,169.37 -878.02,222.67 -666.8,192.69 -1578.25,434.42 -2129.2,847.61l-153.11 111.55c-254.44,217.67 -172.35,107.35 -439.48,393.56 -14.02,15.03 -55.41,57.35 -67.76,73.78 -28.04,37.28 -20.63,42.02 -43.56,82.48 -18.44,32.53 -94.66,121.41 -123.73,159.43 -81.98,107.2 -225.25,382.46 -277.01,517.9 -55.66,145.63 -107.38,249.75 -144.94,405.7 -118.1,490.37 -139.2,910.12 -225.73,1378.86 -59.05,319.93 -77.72,653.45 -132.26,969.38 -53.52,310.08 -85.09,632 -133.66,946.54 -66.95,433.49 -238.2,1505.81 -273.46,1882.45 -32.15,343.44 -82.92,642.05 184.12,814.14 210.93,135.93 701.69,103.78 974.99,101.96 269.06,-1.79 2050.75,26.1 2140.62,-13.35 -311.49,-35.09 -1723.78,-24.76 -2176.05,-14.6 -126.09,2.84 -247.16,-4.72 -371.94,-2.84 -59.94,0.92 -116.9,0.3 -176.76,-0.75 -8.5,-0.15 -68.13,-1.97 -76.7,-3.79 -43.45,-9.23 -15.58,-3.89 -44.09,-15.64l-29.12 -17.03z"/>
   <path class="fil0" d="M6234.21 8754.6c42.74,32.04 11.17,13.99 34.95,-2.88 -83.13,-131.87 -94.17,61.97 -522.81,-167.31l-348.94 -303.61c-203.85,-241.56 -421.73,-730.2 -471.84,-1018.01 -55.1,-316.44 -71.5,-564.31 7.09,-875.6 67.52,-267.39 222.85,-378.2 232.03,-456.13 12.41,-105.19 -646.03,-1898.27 122.12,-3425.84 10.33,-20.56 22.94,-45.15 34.45,-70.8l87.4 -159.9c57.28,-92.14 34.15,-79.07 133.94,-220.89 175.96,-250.11 239.87,-362.41 472.82,-588.81 23.77,-23.09 36.75,-40.73 60.37,-64.08 21.44,-21.2 31.77,-28.24 53.73,-52.88 39.27,-44.08 16.15,-27.49 59.19,-63.36l397.45 -328.49c585.58,-363.62 1271.67,-710.3 2036,-812.43 122,-16.3 833.41,-89.26 858.54,-101.13l-340.78 0.13c-198.28,-36.67 -910.71,126.58 -1102.73,184.79 -659.78,200.01 -1319.73,503.49 -1807.63,972.73 -93.37,89.81 -110.04,71.41 -257.01,238.9 -47.63,54.26 -84.35,96.21 -150.77,168.28 -62.6,67.9 -83.83,108.13 -150.41,186.32 -160.91,188.96 -385.48,582.59 -490.58,820.06 -306.32,692.08 -379.37,1486.64 -283.3,2255.73 35.43,283.6 115.43,648.81 196.09,932.56l42.67 133.62c-183.42,218 -291.16,432.82 -311.93,814.43 -36.48,670.46 366.3,1573.32 933.78,1894.99 206.38,116.98 213.47,88.44 476.11,109.63zm44.71 65c-16.18,126.48 81.93,234.85 98.43,335.69 65.93,18.73 16.47,13.37 44.75,-13.91l-136.78 -372.75c-14.29,29.81 -11.77,1.28 -6.4,50.97zm142.38 384.19c-0.52,97.39 121.16,288.64 166.25,365.1 40.35,68.43 169.06,295.58 217.05,316.47 96.94,69.6 20.78,21.02 46.05,-0.09l-121.92 -173.53c-22.36,-41.68 -20.05,-45.89 -51.67,-87.78 -36.93,-48.9 -32.42,-35.49 -56.46,-87.36 -32.31,-69.65 -61.73,-120.89 -96.2,-185.78 -35.72,-67.21 -62.2,-133.3 -90.31,-194.63 -26.56,35.9 -20.54,-0.62 -12.78,47.59z"/>
   <path class="fil0" d="M5494.23 3972.71c88.72,-1216.4 684.77,-2061.75 1670.75,-2722.44 316.37,-212 767.82,-389.68 1152.76,-494.37 406.04,-110.43 1030.04,-187.36 1460.25,-186.41 383.61,0.83 683.36,42.81 1045.33,68.79 512.46,36.76 1214.32,317.75 1633.75,563.31 131.72,77.12 542.49,380.02 610.69,487.99 42.58,67.42 57.76,115.64 93.67,171.61 81.2,126.55 192.07,196.76 290.47,276.37 283.78,229.59 729.28,1142.85 756.57,1725.39 16.2,345.59 45.23,711.86 -9.45,1057.03l-132.15 698.49c-27.58,129.51 -11.29,120.65 -91.29,192.27l70.84 -15.02c38.22,-27.97 36.72,-37.56 51.83,-90.41 151.96,-531.73 201.32,-1242.42 168.88,-1781.47 -22.74,-378.01 -203.11,-944.12 -393.7,-1265.43 -176.28,-297.18 -241.06,-417.14 -491.99,-628.45 -130.54,-109.91 -152.78,-157.75 -250.26,-315.41 -91.87,-148.57 -185.42,-233.38 -347.35,-344.56 -33.85,-23.23 -43.47,-28.03 -84.2,-57.44l-332.16 -215.84c-406.21,-230.38 -1033.55,-442.27 -1488.41,-496.51 -1415.12,-168.71 -2711.66,-38.1 -3737.26,610.32 -237.72,150.3 -269.66,187.4 -476.57,353.91 -188.39,151.6 -390.88,375.16 -544.74,572.35 -138.54,177.54 -137.48,205.99 -192.04,285.94 -86.53,126.76 -252.84,499.38 -296.85,626.88 -47.22,136.74 -138.84,516.78 -159.44,683.82l-11.74 198.53c14.68,48.91 -20.12,25.53 33.81,40.73z"/>
   <path class="fil0" d="M11619.92 3609.17l0.17 34.58c4.47,3.86 20.14,13.61 21.93,13.53 82.31,-3.64 -66.98,46.19 13.34,-6.55 -23.54,-77.72 -5.82,-65.85 -91.38,-70.37 5.91,0.1 21.56,4.6 24.88,6.6l31.06 22.21zm43.57 112.08c-5.74,92.91 190.31,412.94 250.35,485.83 557.73,677.28 926.58,486.61 1229.97,1019.36 88.38,155.18 138.27,356.58 169.54,572.3 32.52,224.34 -58.48,519.56 83.62,679.9 134.07,151.28 385.43,131.9 475.37,-44.65 35.44,-69.61 2.61,-61.68 80.98,-96.13 238.35,-104.78 246.37,-36.95 358.71,84.75 53.66,21.84 16.78,17.08 44.67,-8.84 -36.79,-68.22 -121.17,-167.26 -206.7,-178 -230.56,-28.96 -341.26,201.64 -343.54,203.9 -116.84,117.24 -319.77,103.31 -389.63,-13.46 -129.18,-215.92 40.66,-824.35 -249.47,-1256.32 -30.73,-45.75 -49.77,-57.85 -77.45,-101.63 -31.58,-49.94 -41.37,-69.16 -86.26,-109.05 -192.82,-171.4 -350.5,-225.88 -570.9,-350.66l-322.29 -243.21c-173.98,-159.26 -355.5,-486.08 -438.47,-697.91 -27.34,41.73 -18.62,-11.15 -8.5,53.82zm2692.66 2756.3c-3.89,116.27 182.66,348.29 -80.04,1051.64 -52.76,141.28 -149.03,301.29 -231.01,406.45 -153.75,197.25 -304.2,246.54 -335.19,285.85l-55.74 35.55c442.5,-22.57 1012.32,-1079.16 716.71,-1833.95 -37.44,45.06 -27.73,1.06 -14.73,54.46zm-721.8 1724.2c-5.73,-85.29 -120.39,-200.14 -211.15,-203.7l-49.22 10.14c43.41,36.55 98.02,48.04 148.52,98.04 46.24,45.77 67.84,91.74 115.11,134.15 9.14,-15.58 11.08,4.49 -3.26,-38.63zm-7148.3 -2665.78c53.56,-181.79 242.63,-392.37 389.3,-483.86 345.7,-215.62 676.42,-223.85 1060.71,-236.72 329.84,-11.05 860.44,-79.75 1172.92,-151.24 506.65,-115.93 917.23,-217.51 1355.25,-397.38 470.78,-193.32 602.14,-292.34 973,-550.28 51.9,-36.08 101.38,-52.82 112.01,-101.88 2.93,-64.32 -4.69,-33.54 -114.08,45.43 -592.85,427.88 -893.9,565.36 -1637.48,787.03 -228.85,68.22 -472.78,113.04 -715.7,170.86 -235.08,55.96 -528.58,88.55 -769.95,115.85 -530.26,60.01 -1018.35,-21.78 -1474.92,297.73 -148.15,103.67 -196.23,112.22 -321.96,335.34 -26.47,46.98 -56.31,95.84 -75.54,161.32 48.49,27.31 8.4,24.13 46.43,7.79zm-71.87 302.78l41.35 -233.35c-0.04,-78.9 21.09,-17.67 -29.27,-66.98 -23.92,80.21 -60.14,191.17 -39.17,254.18 15.8,47.48 -3.05,15.84 27.09,46.16z"/>
   <path class="fil0" d="M14670.31 5679.11c71.64,-226.14 161.95,-783.17 170.13,-1053.54 33.62,-1111.49 -164.51,-1957.75 -850.92,-2812.63 -560.81,-698.46 -1261.3,-1246.25 -2136.59,-1530.33 -183.17,-59.45 -840.58,-231.13 -1035.3,-202.84l-151.95 -18.28c22.32,20.24 -13.91,32.89 124.51,46.52 653.35,64.29 1447.44,296.15 1966.55,654.82 49.44,34.17 31.64,25.97 88.08,52.21 130.96,60.91 194.54,162.09 256.79,203.31 175,115.89 357.07,280.37 508.56,429.69 56.65,55.84 76.67,101.04 144.57,155.41l280 339.55c27.6,34.25 25.44,44.59 56.08,85.42 151.15,201.37 169.25,228.63 303.08,477.34 725.5,1348.19 227.85,3096.74 238.24,3200.25l38.18 -26.9zm-1100.6 3073.13c186.62,18.71 343.94,-28.66 467.23,-98.63 629.3,-357.1 1019.27,-1242.98 933.03,-1939.05 -49.97,-403.45 -176.54,-573.37 -372.87,-779.01 27.66,-67.07 40.97,-45.07 27.81,-139.49l14.77 -88.9c-41.74,25.22 -29.94,22.24 -49.74,100.43 -33.12,130.8 -68.97,134 92.03,305.43 416.26,443.16 244.64,1451.8 -110.47,1961.93 -37.16,53.4 -36.93,87.38 -90.35,138.28l-110.24 119.04c-137.22,159.39 -445.62,359.03 -680.99,375.5 -154.72,10.81 -111.95,4.1 -120.2,44.47z"/>
   <path class="fil0" d="M14906.11 21472.72c-16.61,-57.41 -28.06,-35.14 -90.36,-82.95l-193.98 -160.43c-36.25,-29.22 -16.09,-14.99 -45.64,-41.53 -42.66,-38.34 3.23,-13.47 -51.38,-38.63 -137.83,74.99 -552.51,606.94 -705.85,764.88 -159.91,164.68 -559.54,758.35 -873.43,425.73 -114.6,-121.44 -140.95,-368.05 17.6,-537.11 116,-123.69 268.68,-234.2 393.87,-350.77 141.78,-132.02 259.16,-209.85 392.21,-333.38 86.04,-79.88 361.56,-301.16 385.43,-358.22l-318.3 -388.42c-40.96,20.81 -77.83,61.69 -115.03,96.19l-603.06 495.29c-422.21,386.11 -968.17,698.76 -772.77,1383.4 16.94,35.17 19.46,15.79 38.97,27 14.72,-132.6 -107.92,-294.45 44.94,-630.52 136.58,-300.31 407.35,-471.34 685.82,-711.81 48.3,-41.7 80.05,-52.15 120.91,-91.64 103.22,-99.77 32.23,-55.72 169.05,-149.24 84.58,-57.8 37.9,-51.72 205.49,-166.63 31.55,-21.63 14.64,-10.3 29.88,-23.08l178.07 -154.35c50.98,35.3 89.46,88.82 132.23,143.93 69.22,89.21 95.96,87.4 129.13,169.9 -48.89,79.52 -476.37,421 -584.97,525.53 -95.33,91.74 -535.07,431.83 -591.33,525.03 -51.06,84.58 -94.37,148.13 -94.17,277.08 0.33,208.08 141.92,394.67 371.47,404.72 287.13,12.57 547.06,-418.36 640.4,-507.7l361.58 -381.87c428.53,-517.82 325.62,-433.11 557.09,-222.48l148.44 118.28c67.9,12.35 24.83,31.28 37.68,-26.17zm-2535.17 952.66c-4.07,79.55 115.5,236.12 164.24,288.92 335.37,363.25 912.31,315.41 1033.21,185.44 0,-46.81 -9.36,-33.88 40.46,-22.01 -64.64,-39.19 -6.48,-28.54 -176.72,29.02 -201.43,68.11 -404.14,44.47 -596.64,-34.47 -113.77,-46.65 -256.74,-186.52 -317.26,-264.18 -56.07,-71.93 -110.25,-164.82 -132.23,-246.8 -40.93,55.21 -25.21,-2.67 -15.06,64.08zm1257 430.19c-9.62,-34.42 -12.73,-24.87 22.23,-13.93 63.37,-0.83 82.79,-23.62 179.27,-119.78l698.45 -807.47c105.37,-120.26 207.08,-205.56 303.87,-317.34l14.22 -16.53 25.77 -66.83c0.94,-3.02 2.45,-9.08 3.41,-13.68 -4.02,1.65 -10.11,0.2 -11.81,5.5l-535.88 563.43c-98,115.22 -211.94,240.55 -289.21,366.72 -71.45,116.67 -318.12,325.63 -431.32,400.74l10.85 19.23c0.92,0.39 6.81,-0.59 10.14,-0.04z"/>
   <path class="fil0" d="M6164.02 8111.11c-9.14,77.56 -8.83,19.79 23.73,41.88 46.81,-190.75 312.1,-234.34 415.44,-54.81 72.04,125.14 118.93,382.48 173.26,534.55 145.48,407.17 374.39,805.17 651.15,1139.03l147.79 154.92c139.63,178.62 145.86,148.49 260.22,272.33l181.24 153.52c173.83,118.59 649.66,435.67 824.72,417.33l-13.52 -20.64c-1.62,-2 -10.27,-12.28 -14.44,-16.46 -244.7,-101.6 -240.73,-89.27 -479.2,-236.78 -352.17,-217.84 -494.64,-339.21 -772.25,-644.78 -107.55,-118.37 -215.06,-241.46 -303.01,-386.79 -120.73,-199.47 -137.87,-198.45 -265.29,-442.72 -203.38,-389.94 -286.66,-915.73 -392.34,-1008.14 -209.27,-182.99 -416.56,-14.81 -437.51,97.57zm7100.9 -128.51c-122.4,69.95 -162.38,75.54 -216.86,266.11 -109.43,382.77 -283.04,857.37 -496.55,1168.9 -36.28,52.94 -52.3,89.62 -88.65,141.54 -36.21,51.72 -59.82,95.07 -95.66,134.22 -43.33,47.33 -61.95,71.28 -104.46,126.17 -515.02,664.85 -1733.02,1259.15 -2614.3,1114.33 -143.36,-23.56 -266.57,-34.01 -409.14,-68.34 -101.68,-24.49 -274.5,-88.35 -357.58,-97.25 -55.5,17.54 -5.93,-22.47 -29.91,10.37 -0.66,0.89 -3.97,7 -4.52,7.91 -0.59,0.93 0.86,6.21 1,9.33 376.77,197.17 1212.24,237.63 1655.82,132.87 282.78,-66.79 461.06,-132.48 696.31,-257.54 321,-170.65 441.75,-226.48 726.82,-461.32 115.01,-94.73 283.89,-234.9 366.24,-360.63l211.73 -268.52c71.64,-102.1 120.45,-185.69 180.29,-297.09 104.04,-193.72 215.25,-430.82 296.75,-658.65 61.16,-171 108.29,-430.75 189.09,-520.62 118.47,-131.77 90.51,-7.72 93.55,-121.79z"/>
   <path class="fil0" d="M11478.59 14082.87c-73.07,152.36 -293.96,871.87 -386.61,1119.17l-402.33 1121.03c-67.11,183.81 -139.2,374.07 -197.35,564.25 -57.9,189.34 -120.47,384.83 -190.93,570.56 -55.51,146.33 -385.98,1067.28 -374.02,1163.05 -15.57,47.5 11.11,24.19 -33.57,40.84 -59.22,22.05 -9.13,17.59 -44.84,-8.82 4.76,-100.62 -697.06,-2085.83 -751.41,-2260.55 -177.69,-571.17 -393.82,-1137.91 -580.88,-1703.21 -46.57,-140.75 -130.71,-436.31 -191.33,-554.38l-34.43 -75.11c-39.5,65.15 42.11,236.08 62.87,296.24 174.7,506.27 570.54,1591.23 692.83,2032.68 54.07,195.15 134.81,400.05 197.28,583.09 125.94,369.11 495.23,1523.69 613.85,1726.76 35.29,-39.61 69.3,-43.61 98.14,-96.74l353.17 -1044.91c138.48,-361.02 277.13,-801.63 410.45,-1184.6 97.77,-280.86 836.65,-2243.73 794.28,-2353.19l-35.15 63.83z"/>
   <path class="fil0" d="M12799.32 12126.33c112.46,-12.71 24.27,-9.4 59.66,25.26 93.74,141.8 569.17,229.19 634.38,341.93l39.85 90.97c56.14,43.01 16.99,-13.12 43.5,56.55 -1.36,65.1 23.88,94.74 51.7,159.79 23.88,55.83 35.04,85.74 62.36,149.43 24.57,57.33 95.25,261.98 125.85,300.35 20.29,24.52 33.21,-21.08 29.62,73.45l328.8 842.72c30.96,63.76 128.57,220.79 136.3,270.44 -166.03,96.79 -1312.14,237.59 -1463.5,483.94 -129.84,211.34 63.03,396.29 236.44,620.02l408.28 560.94c-170.89,273.43 -2330.89,2277.04 -2829.79,2672.77 -25.55,20.26 -167.34,132.87 -176.39,177.65l-34.63 54.05c-1.12,-2.26 -5.07,5.96 -7.73,8.82 79.6,-38.04 116.03,-92.09 178.91,-138.02l244.62 -214.79c29.05,-27.33 14.68,-19.32 41.91,-47.2l202.13 -169.43c62.55,-56.14 114.28,-83.7 173.06,-145.93 57.4,-60.75 98.64,-93.56 158.82,-142.26l1437.01 -1344.4c90.57,-107.07 62.84,-65.74 155.33,-146.25 169.03,-147.11 206.11,-219.2 306.11,-313.82 53.68,-50.78 34.37,-27.83 73.86,-85.61 147.98,-216.54 147.28,-139.49 -30.99,-388.45l-21.49 -31.61c-8.71,-12.14 -25.67,-33.84 -30.57,-39.82 -29.26,-35.87 -42.44,-48.97 -71.4,-87.85l-247.04 -355.76c-17.11,-22.17 -36.65,-42.36 -64.82,-77.17 -108.69,-134.31 -130.96,-316.75 15.86,-425.77 86.72,-64.38 801.47,-229.38 963.89,-273.01 459.71,-123.5 358.9,-134.91 425.38,-159.22 -33.03,-106.56 -100.93,-208.38 -160.09,-332.77 -54.16,-113.9 -91.15,-240.97 -136.19,-360.92l-183.44 -451.78c-1.63,-3.82 -3.83,-8.32 -5.46,-12.15l-10.71 -24.84c-3.66,-9.21 -10.48,-29.1 -14.11,-39.39 -20.16,-57.15 -45.84,-112.13 -67.12,-166.5l-204.38 -466.35c-1.98,-3.53 -4.42,-8 -6.4,-11.56l-25.89 -47.09c-1.99,-3.64 -4.42,-8.16 -6.41,-11.77 -1.96,-3.56 -4.38,-8.13 -6.34,-11.63 -32.46,-57.98 -35.53,-68.69 -80.11,-95.95 -77.63,-47.47 -319.94,-129.04 -506.33,-238.32 -155.48,-91.16 -142.46,-62.51 -157.03,-38.08l14.76 6.38z"/>
   <path class="fil0" d="M5841.03 5805.07c39.92,53.5 -7.27,29.28 24.99,2.7 14.32,-11.77 10.92,-8.73 19.47,-41.02 39.55,-149.42 36.58,-329.05 152.26,-561.16 58.54,-117.45 110.81,-205.38 194.43,-302.43 938.59,-1089.32 2646.28,-192.46 4585.05,-1416.03 61.21,-38.62 114.91,-71.03 176.79,-107.27l249.42 -175.42c32.73,-27.46 37.68,-42.44 74.29,-67.23 32.71,-22.16 60.58,-30.37 88.03,-54.32 2.73,-2.39 6.28,-6.21 8.87,-8.72l24.85 -28.3c21.77,-21.78 11.85,-12.5 39.09,-32.62l315.76 -252.9c2.24,-20.9 2.6,-28.21 -9.35,-50.38 -77.26,41.46 -461.81,378.06 -624.43,499 -116.63,86.74 -227.79,150.06 -341.98,223.94 -114.66,74.18 -241.17,142.27 -364.22,204.04 -481.79,241.86 -1192.95,481.89 -1756.78,511.27 -266.12,13.88 -1286.38,111.93 -1513.05,167.77 -436.89,107.65 -796.79,287.32 -1056.71,643.67 -141.74,194.34 -279.54,514.87 -286.8,845.43z"/>
   <path class="fil0" d="M12101.17 12293.98c-110.87,100.24 -248.41,834.31 -371.41,924.66 -53.19,39.08 -89.83,64.52 -146.42,101.07 -322.41,208.21 -714.29,366.5 -1107.9,449.41 -495.92,104.46 -1339.74,20.82 -1785.13,-192.3 -181.71,-86.94 -535.02,-252.12 -653,-374.5 -79.89,-82.86 -207.01,-592.53 -279.88,-747.37 -118.08,-250.89 -96.25,-101.85 -7.32,-346.63 39.42,-108.48 97.68,-301.88 74.15,-434.23 -8.69,-65.55 14.82,-150.17 12.32,-228.12 -53.03,65.89 -30.78,135.05 -46.67,253.85 -10.58,79.19 -18.79,158.62 -35.13,235.52 -29.43,138.36 -149.66,272.55 -101.53,408.46 22.18,62.66 61.06,121.57 89.2,194.74 27.4,71.25 45.04,128.54 70.16,200.37 99.49,284.4 88.08,447.16 271.81,559.52 45.37,27.75 114.18,72.46 165.19,98.95l358.75 188.02c502.16,245.1 1274.08,339.46 1844.31,232.68 376.35,-70.47 870.78,-264.22 1172.13,-472.47 141.12,-97.53 186.44,-116.29 248.26,-302.83l275.18 -798.7c-4.06,6.29 -12.25,16.71 -22.11,27.49 -2.16,2.36 -10.06,14.42 -11.82,10.9 -1.91,-3.83 -8.85,7.58 -13.14,11.52z"/>
   <path class="fil0" d="M13677.19 15122.47c139.51,24.05 748.04,-117.56 876.13,-160.93 357.94,-121.18 435.07,-234.27 296.84,-637.15 -63.46,-184.95 -552.29,-1452.18 -608.7,-1506.14 -47.25,23.61 -18.73,-10.14 -21.94,42.84l60.67 153.86c23.03,56.05 50.24,129.91 72.4,190.78 24.55,67.48 61.59,116.87 87.29,181.6l366.8 976.9c109.6,323.67 109.75,428.03 -356.3,581.64 -146.48,48.28 -474.59,84.12 -672.24,122.06 -99.71,19.17 -172.27,9.8 -216.66,68.93l115.72 -14.41z"/>
   <path class="fil0" d="M12846.8 4296.45c-45.81,10.9 -43.82,26.66 -35.04,-12.85 -33.99,6.99 -22.68,11.7 -22.68,-26.92 -99.14,-110.66 -506.53,-299.17 -637.65,-916.63 -51.44,-69.56 -32.84,-145.59 -35.24,-281.67l-25.59 113.43c-7.82,357.98 290.93,880.22 581.16,1057.01 107.31,65.38 105.76,103.23 175.05,67.63zm1014.38 1382.47c7.97,-298.36 -159.01,-711.81 -295.04,-874.76 -103.78,-124.3 -160.16,-192.37 -298.32,-286.83 -116.68,-79.76 -261.76,-166.41 -388.72,-207.35 -52.93,-7.02 -16.09,-13.25 -54.59,26.83l298.57 151.14c189.36,112.29 261.35,157.32 405.69,353.2 159.42,216.36 251.24,486.77 285.26,757.95l18.31 88.85c22.15,54.33 1.29,10.15 19.37,33.83l9.48 -42.86z"/>
   <path class="fil0" d="M11342.28 21598.09c-61.66,-34.24 -182.62,-19.28 -253.62,-19.67 -94.48,-0.52 -188.91,-1.01 -283.4,-1.33 -185.27,-0.63 -382.46,-7.11 -566.21,0.69l1.14 -1556.58c-40.66,27.96 -19.52,670.49 -19.93,774.53 -1.01,256.25 -12.21,542.66 2.94,795.6l1119.07 6.76z"/>
   <path class="fil0" d="M5701.62 6307.75c242.75,13.07 75.4,101.16 272.3,244.07 103.37,75.01 327.29,44.48 358.28,-71.8 28.24,-73.37 26.15,-11.08 -25.63,-66.16 -56.99,148.2 -240.76,149.99 -318.9,88.14 -65.92,-52.18 -123.35,-291.93 -265.68,-234.57 -27.1,24.19 -9.8,-0.65 -20.37,40.33zm679.86 108.9l-10.1 -17.45c1.04,-99.91 0.63,-21.39 -29.38,-56.2 -22.92,79.42 -11.45,34.1 -0.1,88.47 35.66,-12.95 3.53,10.68 39.58,-14.82z"/>
   <path class="fil0" d="M12152.59 2982.06c-5.92,-126 -67.07,-236.58 -175.55,-248.53 -102.86,-21.44 -18.62,-11.64 -54.23,26.07 124.25,28.45 185.12,107.96 191.75,239.97l38.03 -17.51z"/>
  </g>
 </g>
</svg>
