<svg width="136" height="136" viewBox="0 0 136 136" fill="none" xmlns="http://www.w3.org/2000/svg">
<circle cx="59.0399" cy="59.7352" r="28.5623" fill="#E8EDF5"/>
<path d="M105.996 53.8602C105.808 54.58 105.637 55.3028 105.43 56.0169C103.94 61.1588 101.015 65.3897 96.9745 68.8935C96.0491 69.6959 95.0415 70.4071 94.0544 71.1371C93.6775 71.4167 93.4457 71.7382 93.3475 72.2032C92.6713 75.3883 91.3704 78.2866 89.2408 80.7982C87.6362 82.6898 85.6636 84.1108 83.4474 85.2188C80.6681 86.6079 77.7304 87.4827 74.6415 87.8724C74.4362 87.8984 74.2309 87.9274 74.027 87.9622C73.5195 88.0491 73.5107 88.0505 73.499 88.5792C73.4726 89.8089 73.4418 91.0386 73.4359 92.2684C73.4213 95.4448 73.4271 98.6227 73.4037 101.799C73.3978 102.565 73.3215 103.332 73.2541 104.095C73.2057 104.652 72.7437 104.807 72.2611 104.803C71.6921 104.797 71.3767 104.548 71.321 104.027C71.255 103.407 71.1993 102.781 71.1963 102.158C71.1773 97.6493 71.1729 93.1403 71.1641 88.6313C71.1641 88.501 71.1641 88.3692 71.1641 88.2156H70.2019C70.2019 88.3503 70.2019 88.4793 70.2019 88.6067C70.2019 93.6589 70.2019 98.711 70.2019 103.763C70.2019 104.156 69.8514 104.621 69.4407 104.776C69.0682 104.916 68.7059 104.797 68.3803 104.464C68.153 104.231 68.0562 103.983 68.0562 103.649C68.0694 99.9596 68.0635 96.2704 68.0635 92.5812C68.0635 92.4596 68.0635 92.3379 68.0635 92.1452C67.9579 92.2365 67.889 92.2828 67.8347 92.3437C64.9117 95.607 61.1555 97.3393 56.8934 98.1215C55.9078 98.3025 54.9046 98.4083 53.9058 98.5097C52.8996 98.6125 51.9624 98.0447 51.7146 97.0743C51.3391 95.6056 50.6732 94.2556 50.0968 92.868C48.5319 89.0992 47.1826 85.2608 46.2571 81.2863C45.7482 79.1006 45.361 76.8976 45.1512 74.6626C44.9752 72.7825 44.9122 70.8996 45.0368 69.0152C45.3096 64.8958 46.3084 60.9923 48.7108 57.5464C50.487 54.9972 52.7955 53.0302 55.6643 51.7599C56.5164 51.3819 57.4302 51.0922 58.3468 50.9141C59.13 50.762 59.9573 50.8025 60.7639 50.8011C72.1482 50.7707 83.5325 50.7475 94.9183 50.7243C97.6272 50.7185 100.336 50.7344 103.045 50.7156C104.157 50.7069 104.927 51.2544 105.512 52.1032C105.732 52.4233 105.841 52.8202 106 53.1823V53.8587L105.996 53.8602ZM52.1296 91.9874C52.2147 91.7151 52.2616 91.5253 52.332 91.3457C52.9642 89.7321 53.8148 88.2446 54.8958 86.8773C57.4903 83.5966 60.8299 81.2863 64.6154 79.5482C67.5751 78.1896 70.6683 77.2249 73.8393 76.4891C75.8735 76.0169 77.9313 75.6345 79.9553 75.1247C84.9405 73.8674 89.5766 71.8309 93.7229 68.7964C98.34 65.4187 101.757 61.1661 103.343 55.6229C103.55 54.8973 103.696 54.1528 103.84 53.4126C103.913 53.0302 103.827 52.9563 103.443 52.9361C103.06 52.9158 102.677 52.8839 102.293 52.881C100.291 52.8651 98.2872 52.8477 96.2852 52.8463C91.2105 52.8419 86.1358 52.8448 81.0612 52.8463C80.9512 52.8463 80.8412 52.855 80.7326 52.8608C80.6094 53.5748 80.5332 54.2701 80.3674 54.9436C79.637 57.9071 78.2569 60.5042 76.0378 62.6797C74.1795 64.5004 72.0558 65.8344 69.5757 66.6267C68.1149 67.0931 66.6115 67.2872 65.0818 67.348C64.7107 67.3625 64.4086 67.3668 64.1681 67.0265C63.9378 66.702 63.8117 66.3732 63.9407 65.9937C64.0727 65.607 64.3734 65.4057 64.7782 65.355C65.601 65.2536 66.4267 65.1768 67.2451 65.0522C70.6067 64.5424 73.3538 62.9621 75.5303 60.3912C77.0938 58.5444 77.987 56.4065 78.4123 54.0586C78.4827 53.6704 78.5282 53.2793 78.5913 52.8463C78.3977 52.8463 78.276 52.8463 78.1528 52.8463C73.4315 52.8535 68.7089 52.855 63.9877 52.8694C62.4213 52.8738 60.8549 52.9042 59.2885 52.9448C58.5214 52.965 57.7543 53.0433 57.0371 53.3402C55.3387 54.0427 53.7899 54.9813 52.4802 56.2704C49.5146 59.189 47.9746 62.8028 47.36 66.8193C47.1474 68.2084 47.1679 69.6365 47.1415 71.0473C47.096 73.5502 47.2515 76.0401 47.7502 78.5024C48.3075 81.253 49.0408 83.9558 49.9795 86.6006C50.5706 88.2678 51.2379 89.9089 51.8759 91.5586C51.9272 91.6933 52.024 91.8107 52.1311 91.9888L52.1296 91.9874ZM70.2782 86.0068C70.5011 86.0328 70.6713 86.0792 70.8385 86.069C71.9663 85.9995 73.0971 85.959 74.2191 85.833C76.978 85.523 79.615 84.7814 82.1098 83.5647C86.0552 81.6426 88.8785 78.698 90.4581 74.6235C90.64 74.1542 90.7764 73.669 90.9582 73.1215C90.6986 73.246 90.5197 73.3243 90.3481 73.4155C86.0962 75.6678 81.5686 77.1206 76.8416 78.0157C73.5518 78.6386 70.3325 79.5091 67.2143 80.7272C63.6474 82.1206 60.3753 83.963 57.7221 86.7513C55.5616 89.0224 54.0451 91.6122 53.7826 94.793C53.7371 95.3419 53.7136 95.8909 53.6784 96.4775C54.2431 96.4109 54.7667 96.366 55.2844 96.2834C57.2615 95.9735 59.2122 95.5636 61.0499 94.7408C63.5799 93.6067 65.7242 92.0207 67.1703 89.625C67.4373 89.1832 67.6631 88.7182 67.9389 88.2069C66.5177 88.3706 65.2373 88.7009 64.0698 89.3889C63.3467 89.8147 62.9375 90.4578 62.8173 91.2718C62.7586 91.6731 62.5415 91.9454 62.2203 92.1612C61.9138 92.3683 61.5985 92.3582 61.2817 92.1858C60.9546 92.0076 60.7317 91.773 60.7258 91.3689C60.7082 90.2406 61.2421 89.3642 62.0165 88.6067C63.0578 87.5885 64.3323 86.9714 65.7257 86.5731C66.0219 86.4876 66.3167 86.3978 66.6115 86.3095C66.5221 86.2298 66.4443 86.2095 66.3651 86.2009C65.8093 86.1371 65.2505 86.0922 64.6975 86.0097C64.2165 85.9372 63.8894 85.5549 63.8718 85.1058C63.8542 84.6597 64.1534 84.244 64.6022 84.1122C64.7386 84.0717 64.8867 84.0514 65.0305 84.0499C66.1246 84.0354 67.1718 84.2614 68.1589 84.7206C68.4419 84.8509 68.5842 84.8002 68.7162 84.5294C69.3117 83.3069 70.2635 82.4132 71.4369 81.7411C72.3741 81.2052 73.3655 80.8358 74.4758 80.9097C74.9495 80.9416 75.4057 81.4268 75.4526 81.9193C75.4937 82.348 75.193 82.7362 74.7031 82.8825C74.6137 82.9086 74.5227 82.9317 74.4318 82.9477C73.9639 83.0302 73.4829 83.0664 73.0282 83.1968C71.6011 83.6053 70.7959 84.6279 70.2782 86.0039V86.0068Z" fill="#AE846F"/>
</svg>
