<svg width="30" height="59" viewBox="0 0 30 59" fill="none" xmlns="http://www.w3.org/2000/svg">
<g id="Layer_7">
<g id="Group">
<path id="Vector" d="M15.21 57.516C17.5605 57.516 19.4659 55.6105 19.4659 53.2601C19.4659 50.9096 17.5605 49.0042 15.21 49.0042C12.8595 49.0042 10.9541 50.9096 10.9541 53.2601C10.9541 55.6105 12.8595 57.516 15.21 57.516Z" stroke="#164483" stroke-width="1.66531" stroke-linecap="round" stroke-linejoin="round"/>
<path id="Vector_2" d="M11.6963 23.8972L15.2104 29.0017L18.7222 23.8972" stroke="#164483" stroke-width="1.66531" stroke-linecap="round" stroke-linejoin="round"/>
<path id="Vector_3" d="M15.1545 28.9446V32.5679C15.1545 34.2188 13.817 35.5551 12.1638 35.5551H3.74214C3.74214 35.5551 0.953125 35.3284 0.953125 38.2587C0.953125 41.3064 3.74214 40.9587 3.74214 40.9587H25.6127C25.6127 40.9587 28.2 40.8483 28.2 43.6646C28.2 46.4809 26.364 46.5379 25.5593 46.5379C24.7499 46.5379 17.7406 46.5379 17.7406 46.5379C17.7406 46.5379 15.2091 46.5699 15.2091 48.8712" stroke="#164483" stroke-width="1.66531" stroke-linecap="round" stroke-linejoin="round"/>
<path id="Vector_4" d="M8.31267 2.61621C6.36511 2.61621 5.55451 3.93832 6.07315 6.14223L8.83131 20.1276C9.60748 22.2758 10.4121 23.656 12.3573 23.656H18.0647C20.0146 23.656 20.9024 22.1037 21.5955 20.1276L24.3536 6.14223C24.9838 3.93832 24.2884 2.61621 22.3396 2.61621" stroke="#164483" stroke-width="1.66531" stroke-linecap="round" stroke-linejoin="round"/>
<path id="Vector_5" d="M19.6465 3.09818C19.6465 3.36403 19.8649 3.58003 20.1307 3.58003H21.5122C21.7816 3.58003 21.9964 3.36403 21.9964 3.09818V2.19739C21.9964 1.93154 21.7804 1.71436 21.5122 1.71436H20.1319C19.8649 1.71436 19.6477 1.93154 19.6477 2.19739V3.09818H19.6465Z" stroke="#164483" stroke-width="1.66531" stroke-linecap="round" stroke-linejoin="round"/>
<path id="Vector_6" d="M8.76367 3.09818C8.76367 3.36403 8.97967 3.58003 9.24552 3.58003H10.6293C10.894 3.58003 11.1112 3.36403 11.1112 3.09818V2.19739C11.1112 1.93154 10.8928 1.71436 10.6293 1.71436H9.24552C8.97849 1.71436 8.76367 1.93154 8.76367 2.19739V3.09818Z" stroke="#164483" stroke-width="1.66531" stroke-linecap="round" stroke-linejoin="round"/>
</g>
</g>
</svg>
