<svg width="184" height="75" viewBox="0 0 184 75" fill="none" xmlns="http://www.w3.org/2000/svg">
<path d="M2.952 40V14.548H8.208L15.804 27.58L23.328 14.548H28.44V40H24.3V20.164L16.632 33.376H14.76L7.092 20.164V40H2.952ZM34.3465 14.548H52.0225V18.292H38.5225V25.528H50.4745V29.308H38.5225V36.292H52.0225V40H34.3465V14.548ZM56.5301 14.548H65.7461C67.7621 14.548 69.5381 14.848 71.0741 15.448C72.6341 16.024 73.9301 16.864 74.9621 17.968C76.0181 19.048 76.8101 20.38 77.3381 21.964C77.8661 23.548 78.1301 25.324 78.1301 27.292C78.1301 29.284 77.8661 31.06 77.3381 32.62C76.8101 34.18 76.0301 35.512 74.9981 36.616C73.9901 37.72 72.7181 38.56 71.1821 39.136C69.6701 39.712 67.9061 40 65.8901 40H56.5301V14.548ZM60.7061 18.292V36.292H65.7821C67.1741 36.292 68.3741 36.076 69.3821 35.644C70.3901 35.212 71.2181 34.612 71.8661 33.844C72.5381 33.052 73.0301 32.104 73.3421 31C73.6781 29.896 73.8461 28.66 73.8461 27.292C73.8461 24.46 73.1501 22.252 71.7581 20.668C70.3901 19.084 68.3861 18.292 65.7461 18.292H60.7061ZM82.6512 14.548H86.7912V36.292H100.039V40H82.6512V14.548ZM115.109 40.252C113.117 40.252 111.353 39.928 109.817 39.28C108.305 38.608 107.033 37.696 106.001 36.544C104.969 35.392 104.177 34.024 103.625 32.44C103.097 30.856 102.833 29.128 102.833 27.256C102.833 25.36 103.109 23.62 103.661 22.036C104.213 20.428 105.005 19.048 106.037 17.896C107.093 16.744 108.377 15.844 109.889 15.196C111.425 14.548 113.177 14.224 115.145 14.224C117.113 14.224 118.853 14.548 120.365 15.196C121.901 15.82 123.185 16.708 124.217 17.86C125.273 19.012 126.065 20.392 126.593 22C127.145 23.584 127.421 25.324 127.421 27.22C127.421 29.092 127.145 30.832 126.593 32.44C126.065 34.024 125.273 35.392 124.217 36.544C123.185 37.696 121.901 38.608 120.365 39.28C118.829 39.928 117.077 40.252 115.109 40.252ZM115.145 17.968C113.777 17.968 112.589 18.22 111.581 18.724C110.597 19.228 109.769 19.9 109.097 20.74C108.425 21.58 107.921 22.564 107.585 23.692C107.273 24.82 107.117 25.996 107.117 27.22C107.117 28.444 107.273 29.62 107.585 30.748C107.921 31.852 108.413 32.836 109.061 33.7C109.733 34.564 110.573 35.248 111.581 35.752C112.589 36.256 113.777 36.508 115.145 36.508C116.489 36.508 117.665 36.268 118.673 35.788C119.681 35.284 120.509 34.612 121.157 33.772C121.829 32.932 122.321 31.96 122.633 30.856C122.969 29.728 123.137 28.528 123.137 27.256C123.137 26.008 122.969 24.832 122.633 23.728C122.321 22.6 121.829 21.616 121.157 20.776C120.509 19.912 119.681 19.228 118.673 18.724C117.689 18.22 116.513 17.968 115.145 17.968ZM142.662 17.968C141.318 17.992 140.166 18.256 139.206 18.76C138.246 19.264 137.454 19.936 136.83 20.776C136.23 21.616 135.786 22.6 135.498 23.728C135.21 24.832 135.066 26.008 135.066 27.256C135.066 28.504 135.21 29.692 135.498 30.82C135.81 31.924 136.278 32.908 136.902 33.772C137.55 34.612 138.366 35.284 139.35 35.788C140.334 36.268 141.498 36.508 142.842 36.508C145.026 36.508 146.718 35.944 147.918 34.816C149.142 33.664 149.778 32.176 149.826 30.352H142.374V26.824H153.822C153.822 27.736 153.798 28.66 153.75 29.596C153.726 30.508 153.594 31.468 153.354 32.476C153.066 33.556 152.646 34.576 152.094 35.536C151.542 36.472 150.834 37.288 149.97 37.984C149.106 38.68 148.074 39.232 146.874 39.64C145.698 40.048 144.342 40.252 142.806 40.252C140.814 40.252 139.062 39.94 137.55 39.316C136.062 38.668 134.814 37.768 133.806 36.616C132.798 35.464 132.042 34.096 131.538 32.512C131.034 30.928 130.782 29.2 130.782 27.328C130.782 25.432 131.034 23.68 131.538 22.072C132.042 20.464 132.786 19.084 133.77 17.932C134.778 16.756 136.026 15.844 137.514 15.196C139.026 14.548 140.778 14.224 142.77 14.224C144.162 14.224 145.446 14.404 146.622 14.764C147.822 15.1 148.878 15.604 149.79 16.276C150.702 16.924 151.458 17.74 152.058 18.724C152.658 19.684 153.054 20.788 153.246 22.036H149.034C148.722 20.764 147.99 19.768 146.838 19.048C145.71 18.328 144.318 17.968 142.662 17.968ZM169.461 40.252C167.469 40.252 165.705 39.928 164.169 39.28C162.657 38.608 161.385 37.696 160.353 36.544C159.321 35.392 158.529 34.024 157.977 32.44C157.449 30.856 157.185 29.128 157.185 27.256C157.185 25.36 157.461 23.62 158.013 22.036C158.565 20.428 159.357 19.048 160.389 17.896C161.445 16.744 162.729 15.844 164.241 15.196C165.777 14.548 167.529 14.224 169.497 14.224C171.465 14.224 173.205 14.548 174.717 15.196C176.253 15.82 177.537 16.708 178.569 17.86C179.625 19.012 180.417 20.392 180.945 22C181.497 23.584 181.773 25.324 181.773 27.22C181.773 29.092 181.497 30.832 180.945 32.44C180.417 34.024 179.625 35.392 178.569 36.544C177.537 37.696 176.253 38.608 174.717 39.28C173.181 39.928 171.429 40.252 169.461 40.252ZM169.497 17.968C168.129 17.968 166.941 18.22 165.933 18.724C164.949 19.228 164.121 19.9 163.449 20.74C162.777 21.58 162.273 22.564 161.937 23.692C161.625 24.82 161.469 25.996 161.469 27.22C161.469 28.444 161.625 29.62 161.937 30.748C162.273 31.852 162.765 32.836 163.413 33.7C164.085 34.564 164.925 35.248 165.933 35.752C166.941 36.256 168.129 36.508 169.497 36.508C170.841 36.508 172.017 36.268 173.025 35.788C174.033 35.284 174.861 34.612 175.509 33.772C176.181 32.932 176.673 31.96 176.985 30.856C177.321 29.728 177.489 28.528 177.489 27.256C177.489 26.008 177.321 24.832 176.985 23.728C176.673 22.6 176.181 21.616 175.509 20.776C174.861 19.912 174.033 19.228 173.025 18.724C172.041 18.22 170.865 17.968 169.497 17.968Z" fill="#5A95DB"/>
<path d="M1.312 71V59.688H3.648L7.024 65.48L10.368 59.688H12.64V71H10.8V62.184L7.392 68.056H6.56L3.152 62.184V71H1.312ZM16.4491 67.4C16.4705 67.7093 16.5345 67.9973 16.6411 68.264C16.7478 68.5307 16.8918 68.7653 17.0731 68.968C17.2545 69.16 17.4785 69.3147 17.7451 69.432C18.0225 69.5493 18.3425 69.608 18.7051 69.608C19.0891 69.608 19.4411 69.5387 19.7611 69.4C20.0918 69.2613 20.3318 69.0213 20.4811 68.68H22.3531C22.2465 69.1067 22.0705 69.4747 21.8251 69.784C21.5905 70.0933 21.3078 70.3493 20.9771 70.552C20.6571 70.744 20.2998 70.888 19.9051 70.984C19.5211 71.0693 19.1105 71.112 18.6731 71.112C18.0011 71.112 17.4091 71.0107 16.8971 70.808C16.3958 70.6053 15.9745 70.312 15.6331 69.928C15.2918 69.544 15.0358 69.0907 14.8651 68.568C14.7051 68.0347 14.6251 67.4373 14.6251 66.776C14.6251 66.136 14.7158 65.5547 14.8971 65.032C15.0785 64.4987 15.3398 64.04 15.6811 63.656C16.0331 63.272 16.4545 62.9733 16.9451 62.76C17.4358 62.536 17.9958 62.424 18.6251 62.424C19.2865 62.424 19.8571 62.536 20.3371 62.76C20.8171 62.9733 21.2171 63.2667 21.5371 63.64C21.8678 64.0133 22.1131 64.4507 22.2731 64.952C22.4331 65.4533 22.5131 65.9973 22.5131 66.584C22.5131 66.8613 22.4971 67.1333 22.4651 67.4H16.4491ZM20.7371 66.024C20.7051 65.3627 20.4971 64.8613 20.1131 64.52C19.7398 64.1787 19.2491 64.008 18.6411 64.008C18.2998 64.008 18.0011 64.0613 17.7451 64.168C17.4891 64.2747 17.2705 64.4187 17.0891 64.6C16.9185 64.7813 16.7798 64.9947 16.6731 65.24C16.5665 65.4853 16.4971 65.7467 16.4651 66.024H20.7371ZM24.8884 65.576C24.9204 65.064 24.9417 64.568 24.9524 64.088C24.963 63.5973 24.9684 63.0907 24.9684 62.568H31.4644V69.448H32.5684V73.464H30.7924V71H25.0324V73.464H23.2564V69.448C23.5657 69.448 23.8217 69.352 24.0244 69.16C24.2377 68.9573 24.3817 68.7333 24.4564 68.488C24.531 68.3173 24.595 68.088 24.6484 67.8C24.7017 67.5013 24.7444 67.208 24.7764 66.92C24.8084 66.632 24.835 66.3653 24.8564 66.12C24.8777 65.8747 24.8884 65.6933 24.8884 65.576ZM29.6404 64.152H26.6324C26.611 64.536 26.595 64.952 26.5844 65.4C26.5737 65.848 26.5577 66.28 26.5364 66.696C26.515 66.8987 26.4937 67.1173 26.4724 67.352C26.4617 67.5867 26.435 67.8267 26.3924 68.072C26.3497 68.3067 26.291 68.5413 26.2164 68.776C26.1417 69.0107 26.0404 69.2347 25.9124 69.448H29.6404V64.152ZM35.5318 71H33.8358V62.568H35.6598V68.36L39.9478 62.568H41.5958V71H39.7718V65.32C39.7611 65.3413 38.3478 67.2347 35.5318 71ZM49.0738 69.448V62.568H50.8978V69.448H52.0338V73.464H50.2418V71H43.5858V62.568H45.3938V69.448H49.0738ZM55.0005 71H53.3045V62.568H55.1285V68.36L59.4165 62.568H61.0645V71H59.2405V65.32C59.2298 65.3413 57.8165 67.2347 55.0005 71ZM63.0545 71V62.568H64.8785V66.04H68.6225V62.568H70.4465V71H68.6225V67.624H64.8785V71H63.0545ZM76.1415 71.112C75.4695 71.112 74.8775 71.0107 74.3655 70.808C73.8642 70.5947 73.4428 70.3013 73.1015 69.928C72.7708 69.544 72.5202 69.0907 72.3495 68.568C72.1895 68.0347 72.1095 67.448 72.1095 66.808C72.1095 66.168 72.1948 65.5813 72.3655 65.048C72.5468 64.5147 72.8135 64.056 73.1655 63.672C73.5175 63.288 73.9442 62.984 74.4455 62.76C74.9468 62.536 75.5282 62.424 76.1895 62.424C76.6588 62.424 77.0908 62.4773 77.4855 62.584C77.8908 62.68 78.2482 62.8453 78.5575 63.08C78.8668 63.304 79.1335 63.592 79.3575 63.944C79.5815 64.2853 79.7362 64.7013 79.8215 65.192H77.9335C77.8375 64.8293 77.6295 64.552 77.3095 64.36C77.0002 64.1573 76.6162 64.056 76.1575 64.056C75.7522 64.056 75.4055 64.1307 75.1175 64.28C74.8295 64.4293 74.5948 64.632 74.4135 64.888C74.2322 65.144 74.0988 65.4427 74.0135 65.784C73.9388 66.1147 73.9015 66.4613 73.9015 66.824C73.9015 67.1973 73.9442 67.5493 74.0295 67.88C74.1148 68.2107 74.2482 68.4987 74.4295 68.744C74.6215 68.9787 74.8615 69.1707 75.1495 69.32C75.4375 69.4587 75.7842 69.528 76.1895 69.528C76.6695 69.528 77.0642 69.4213 77.3735 69.208C77.6935 68.9947 77.8962 68.712 77.9815 68.36H79.8535C79.7682 68.84 79.6082 69.256 79.3735 69.608C79.1495 69.96 78.8722 70.248 78.5415 70.472C78.2108 70.696 77.8428 70.8613 77.4375 70.968C77.0322 71.064 76.6002 71.112 76.1415 71.112ZM81.4139 71V62.568H83.2219V66.008H84.5179L86.6779 62.568H88.7579L86.0859 66.584L88.9659 71H86.8539L84.6299 67.592H83.2219V71H81.4139ZM91.688 71H89.992V62.568H91.816V68.36L96.104 62.568H97.752V71H95.928V65.32C95.9173 65.3413 94.504 67.2347 91.688 71ZM103.758 60.312C104.131 60.312 104.441 60.2267 104.686 60.056C104.931 59.8853 105.07 59.6133 105.102 59.24H106.702C106.627 60.072 106.329 60.68 105.806 61.064C105.294 61.448 104.611 61.64 103.758 61.64C102.883 61.64 102.185 61.448 101.662 61.064C101.15 60.68 100.862 60.072 100.798 59.24H102.398C102.441 59.6133 102.579 59.8853 102.814 60.056C103.059 60.2267 103.374 60.312 103.758 60.312ZM101.438 71H99.742V62.568H101.566V68.36L105.854 62.568H107.502V71H105.678V65.336C105.667 65.3573 104.254 67.2453 101.438 71ZM119.293 69.448V62.568H121.117V69.448H122.253V73.464H120.461V71H113.805V62.568H115.613V69.448H119.293ZM125.027 67.4C125.049 67.7093 125.113 67.9973 125.219 68.264C125.326 68.5307 125.47 68.7653 125.651 68.968C125.833 69.16 126.057 69.3147 126.323 69.432C126.601 69.5493 126.921 69.608 127.283 69.608C127.667 69.608 128.019 69.5387 128.339 69.4C128.67 69.2613 128.91 69.0213 129.059 68.68H130.931C130.825 69.1067 130.649 69.4747 130.403 69.784C130.169 70.0933 129.886 70.3493 129.555 70.552C129.235 70.744 128.878 70.888 128.483 70.984C128.099 71.0693 127.689 71.112 127.251 71.112C126.579 71.112 125.987 71.0107 125.475 70.808C124.974 70.6053 124.553 70.312 124.211 69.928C123.87 69.544 123.614 69.0907 123.443 68.568C123.283 68.0347 123.203 67.4373 123.203 66.776C123.203 66.136 123.294 65.5547 123.475 65.032C123.657 64.4987 123.918 64.04 124.259 63.656C124.611 63.272 125.033 62.9733 125.523 62.76C126.014 62.536 126.574 62.424 127.203 62.424C127.865 62.424 128.435 62.536 128.915 62.76C129.395 62.9733 129.795 63.2667 130.115 63.64C130.446 64.0133 130.691 64.4507 130.851 64.952C131.011 65.4533 131.091 65.9973 131.091 66.584C131.091 66.8613 131.075 67.1333 131.043 67.4H125.027ZM129.315 66.024C129.283 65.3627 129.075 64.8613 128.691 64.52C128.318 64.1787 127.827 64.008 127.219 64.008C126.878 64.008 126.579 64.0613 126.323 64.168C126.067 64.2747 125.849 64.4187 125.667 64.6C125.497 64.7813 125.358 64.9947 125.251 65.24C125.145 65.4853 125.075 65.7467 125.043 66.024H129.315ZM132.742 71V62.568H134.566V66.04H138.31V62.568H140.134V71H138.31V67.624H134.566V71H132.742ZM148.693 62.568V64.152H145.845V71H144.037V64.152H141.189V62.568H148.693ZM151.566 74.28H149.742V62.568H151.47L151.566 63.768C151.875 63.3307 152.275 63 152.766 62.776C153.267 62.5413 153.79 62.424 154.334 62.424C154.91 62.424 155.427 62.5307 155.886 62.744C156.345 62.9467 156.734 63.2347 157.054 63.608C157.385 63.9813 157.63 64.4347 157.79 64.968C157.961 65.4907 158.046 66.088 158.046 66.76C158.046 67.3893 157.966 67.9707 157.806 68.504C157.646 69.0373 157.406 69.5013 157.086 69.896C156.777 70.28 156.387 70.5787 155.918 70.792C155.459 71.0053 154.899 71.112 154.238 71.112C153.726 71.112 153.235 71.032 152.766 70.872C152.307 70.7013 151.907 70.424 151.566 70.04V74.28ZM153.95 69.528C154.345 69.528 154.686 69.4587 154.974 69.32C155.262 69.1707 155.497 68.9733 155.678 68.728C155.87 68.4827 156.009 68.1947 156.094 67.864C156.19 67.5333 156.238 67.176 156.238 66.792C156.238 66.408 156.19 66.0507 156.094 65.72C156.009 65.3787 155.87 65.0853 155.678 64.84C155.497 64.5947 155.257 64.4027 154.958 64.264C154.67 64.1253 154.323 64.056 153.918 64.056C153.555 64.056 153.219 64.1307 152.91 64.28C152.611 64.4293 152.361 64.6267 152.158 64.872C151.955 65.1173 151.801 65.4107 151.694 65.752C151.598 66.0827 151.55 66.424 151.55 66.776C151.55 67.16 151.598 67.5227 151.694 67.864C151.79 68.1947 151.934 68.4827 152.126 68.728C152.329 68.9627 152.579 69.1547 152.878 69.304C153.177 69.4533 153.534 69.528 153.95 69.528Z" fill="#36384C"/>
</svg>
